<svg xmlns="http://www.w3.org/2000/svg" id="Layer_1" viewBox="0 0 493.23 512.34"><rect width="467.09" height="258.08" x="16.57" y="201.97" fill="#231f20" stroke="#231f20" stroke-linejoin="round" stroke-width="4"/><rect width="488.4" height="62.01" x="2.42" y="38.4" fill="#231f20" stroke="#231f20" stroke-miterlimit="10" transform="translate(-7.82 39.45) rotate(-9)"/><rect width="479.24" height="63.52" x="9.83" y="138.12" fill="#231f20"/><circle cx="14.44" cy="88.8" r="5.08" fill="#fff"/><circle cx="22.11" cy="169.88" r="5.54" fill="#fff"/><circle cx="57.3" cy="169.88" r="5.73" fill="#fff"/><line x1="26.65" x2="469.58" y1="232.42" y2="231.9" fill="none" stroke="#fff" stroke-miterlimit="10" stroke-width="5"/><line x1="27.65" x2="469.58" y1="288.3" y2="286.25" fill="none" stroke="#fff" stroke-miterlimit="10" stroke-width="5"/><line x1="27.65" x2="249.45" y1="334.04" y2="334.77" fill="none" stroke="#fff" stroke-miterlimit="10" stroke-width="5"/><line x1="27.65" x2="464.76" y1="379.78" y2="378.43" fill="none" stroke="#fff" stroke-miterlimit="10" stroke-width="5"/><line x1="28.18" x2="465.45" y1="423.22" y2="424.44" fill="none" stroke="#fff" stroke-miterlimit="10" stroke-width="5"/><line x1="249.45" x2="249.45" y1="288.3" y2="379.78" fill="none" stroke="#fff" stroke-miterlimit="10" stroke-width="5"/><line x1="185.57" x2="186.26" y1="234.55" y2="290.39" fill="none" stroke="#fff" stroke-miterlimit="10" stroke-width="5"/><line x1="329.02" x2="329.02" y1="232.41" y2="287.27" fill="none" stroke="#fff" stroke-miterlimit="10" stroke-width="5"/><path fill="#fff" d="m207.79,107.46c-30.45,4.82-60.9,9.65-91.35,14.47-17.41-18.51-34.83-37.02-52.24-55.52,29.47-4.67,58.94-9.34,88.4-14,18.39,18.35,36.79,36.7,55.18,55.05Z"/><path fill="#fff" d="m342.5,86.12c-31.26,4.95-62.52,9.91-93.78,14.86-17.27-18.53-34.53-37.06-51.8-55.59,29.77-4.72,59.55-9.43,89.32-14.15,18.75,18.29,37.51,36.59,56.26,54.88Z"/><path fill="#fff" d="m493.23,62.23c-33.48,5.3-66.96,10.61-100.44,15.91-16.81-18.6-33.61-37.21-50.42-55.81,30.06-4.76,60.12-9.53,90.17-14.29,20.23,18.06,40.46,36.12,60.69,54.18Z"/><path fill="#fff" d="m179.97,201.64h-93.55c10.78-21.17,21.55-42.34,32.33-63.52h101.12c-13.3,21.17-26.6,42.34-39.9,63.52Z"/><path fill="#fff" d="m447.76,201.64h-93.73c10.81-21.17,21.62-42.34,32.43-63.52h101.05c-13.25,21.17-26.5,42.34-39.74,63.52Z"/><path fill="#fff" d="m311.37,201.64h-93.6c10.79-21.17,21.58-42.34,32.37-63.52h101.06c-13.28,21.17-26.55,42.34-39.83,63.52Z"/><path fill="#fff" d="m264.54,316.48v-1.95h1.95v1.95h-1.95Zm0,1.95v-1.95h1.95v1.95h-1.95Zm0,1.95v-1.95h1.95v1.95h-1.95Zm1.95,0v1.95h-1.95v-1.95h1.95Zm0,1.95v1.95h-1.95v-1.95h1.95Zm0,1.95v1.95h-1.95v-1.95h1.95Zm0,1.95v1.95h-1.95v-1.95h1.95Zm0,1.95v1.95h-1.95v-1.95h1.95Zm0,1.95v1.95h-1.95v-1.95h1.95Zm0,1.95v1.95h-1.95v-1.95h1.95Zm0,1.95v1.95h-1.95v-1.95h1.95Zm0,1.95v1.95h-1.95v-1.95h1.95Zm0,1.95v1.95h-1.95v-1.95h1.95Zm0,1.95v1.95h-1.95v-1.95h1.95Zm0,1.95v1.95h-1.95v-1.95h1.95Zm0,1.95v1.95h-1.95v-1.95h1.95Zm0,1.95v1.95h-1.95v-1.95h1.95Zm0-33.17v-1.95h1.95v1.95h-1.95Zm0,1.95v-1.95h1.95v1.95h-1.95Zm0,1.95v-1.95h1.95v1.95h-1.95Zm0,1.95v-1.95h1.95v1.95h-1.95Zm0,1.95v-1.95h1.95v1.95h-1.95Zm1.95,0v1.95h-1.95v-1.95h1.95Zm0,1.95v1.95h-1.95v-1.95h1.95Zm0,1.95v1.95h-1.95v-1.95h1.95Zm0,1.95v1.95h-1.95v-1.95h1.95Zm0,1.95v1.95h-1.95v-1.95h1.95Zm0,1.95v1.95h-1.95v-1.95h1.95Zm0,1.95v1.95h-1.95v-1.95h1.95Zm0,1.95v1.95h-1.95v-1.95h1.95Zm0,1.95v1.95h-1.95v-1.95h1.95Zm0,1.95v1.95h-1.95v-1.95h1.95Zm0,1.95v1.95h-1.95v-1.95h1.95Zm0,1.95v1.95h-1.95v-1.95h1.95Zm0,1.95v1.95h-1.95v-1.95h1.95Zm0,1.95v1.95h-1.95v-1.95h1.95Zm0,1.95v1.95h-1.95v-1.95h1.95Zm0,1.95v1.95h-1.95v-1.95h1.95Zm0-39.02v-1.95h1.95v1.95h-1.95Zm0,1.95v-1.95h1.95v1.95h-1.95Zm0,1.95v-1.95h1.95v1.95h-1.95Zm0,1.95v-1.95h1.95v1.95h-1.95Zm0,1.95v-1.95h1.95v1.95h-1.95Zm0,1.95v-1.95h1.95v1.95h-1.95Zm1.95,0v1.95h-1.95v-1.95h1.95Zm0,1.95v1.95h-1.95v-1.95h1.95Zm0,1.95v1.95h-1.95v-1.95h1.95Zm0,1.95v1.95h-1.95v-1.95h1.95Zm0,1.95v1.95h-1.95v-1.95h1.95Zm0,1.95v1.95h-1.95v-1.95h1.95Zm0,1.95v1.95h-1.95v-1.95h1.95Zm0,1.95v1.95h-1.95v-1.95h1.95Zm0,1.95v1.95h-1.95v-1.95h1.95Zm0,1.95v1.95h-1.95v-1.95h1.95Zm0,1.95v1.95h-1.95v-1.95h1.95Zm0,1.95v1.95h-1.95v-1.95h1.95Zm0,1.95v1.95h-1.95v-1.95h1.95Zm0,1.95v1.95h-1.95v-1.95h1.95Zm0,1.95v1.95h-1.95v-1.95h1.95Zm0,1.95v1.95h-1.95v-1.95h1.95Zm0,1.95v1.95h-1.95v-1.95h1.95Zm0-40.98v-1.95h1.95v1.95h-1.95Zm0,1.95v-1.95h1.95v1.95h-1.95Zm0,1.95v-1.95h1.95v1.95h-1.95Zm0,1.95v-1.95h1.95v1.95h-1.95Zm0,1.95v-1.95h1.95v1.95h-1.95Zm0,1.95v-1.95h1.95v1.95h-1.95Zm1.95,0v1.95h-1.95v-1.95h1.95Zm0,1.95v1.95h-1.95v-1.95h1.95Zm0,1.95v1.95h-1.95v-1.95h1.95Zm0,1.95v1.95h-1.95v-1.95h1.95Zm0,1.95v1.95h-1.95v-1.95h1.95Zm0,1.95v1.95h-1.95v-1.95h1.95Zm0,1.95v1.95h-1.95v-1.95h1.95Zm0,1.95v1.95h-1.95v-1.95h1.95Zm0,1.95v1.95h-1.95v-1.95h1.95Zm0,1.95v1.95h-1.95v-1.95h1.95Zm0,1.95v1.95h-1.95v-1.95h1.95Zm0,1.95v1.95h-1.95v-1.95h1.95Zm0,1.95v1.95h-1.95v-1.95h1.95Zm0,1.95v1.95h-1.95v-1.95h1.95Zm0,1.95v1.95h-1.95v-1.95h1.95Zm0,1.95v1.95h-1.95v-1.95h1.95Zm0,1.95v1.95h-1.95v-1.95h1.95Zm0-42.93v-1.95h1.95v1.95h-1.95Zm0,1.95v-1.95h1.95v1.95h-1.95Zm0,1.95v-1.95h1.95v1.95h-1.95Zm0,1.95v-1.95h1.95v1.95h-1.95Zm0,1.95v-1.95h1.95v1.95h-1.95Zm0,1.95v-1.95h1.95v1.95h-1.95Zm0,1.95v-1.95h1.95v1.95h-1.95Zm1.95,0v1.95h-1.95v-1.95h1.95Zm0,1.95v1.95h-1.95v-1.95h1.95Zm0,1.95v1.95h-1.95v-1.95h1.95Zm0,1.95v1.95h-1.95v-1.95h1.95Zm0,1.95v1.95h-1.95v-1.95h1.95Zm0,1.95v1.95h-1.95v-1.95h1.95Zm0,1.95v1.95h-1.95v-1.95h1.95Zm0,1.95v1.95h-1.95v-1.95h1.95Zm0,1.95v1.95h-1.95v-1.95h1.95Zm0,1.95v1.95h-1.95v-1.95h1.95Zm0,1.95v1.95h-1.95v-1.95h1.95Zm0,1.95v1.95h-1.95v-1.95h1.95Zm0,1.95v1.95h-1.95v-1.95h1.95Zm0,1.95v1.95h-1.95v-1.95h1.95Zm0,1.95v1.95h-1.95v-1.95h1.95Zm0,1.95v1.95h-1.95v-1.95h1.95Zm0,1.95v1.95h-1.95v-1.95h1.95Zm0,1.95v1.95h-1.95v-1.95h1.95Zm0-44.88v-1.95h1.95v1.95h-1.95Zm0,1.95v-1.95h1.95v1.95h-1.95Zm0,1.95v-1.95h1.95v1.95h-1.95Zm0,1.95v-1.95h1.95v1.95h-1.95Zm0,1.95v-1.95h1.95v1.95h-1.95Zm1.95,0v1.95h-1.95v-1.95h1.95Zm0,27.32v1.95h-1.95v-1.95h1.95Zm0,1.95v1.95h-1.95v-1.95h1.95Zm0,1.95v1.95h-1.95v-1.95h1.95Zm0,1.95v1.95h-1.95v-1.95h1.95Zm0,1.95v1.95h-1.95v-1.95h1.95Zm0,1.95v1.95h-1.95v-1.95h1.95Zm0-44.88v-1.95h1.95v1.95h-1.95Zm0,1.95v-1.95h1.95v1.95h-1.95Zm0,1.95v-1.95h1.95v1.95h-1.95Zm0,1.95v-1.95h1.95v1.95h-1.95Zm1.95,0v1.95h-1.95v-1.95h1.95Zm0,31.22v1.95h-1.95v-1.95h1.95Zm0,1.95v1.95h-1.95v-1.95h1.95Zm0,1.95v1.95h-1.95v-1.95h1.95Zm0,1.95v1.95h-1.95v-1.95h1.95Zm0,1.95v1.95h-1.95v-1.95h1.95Zm0-44.88v-1.95h1.95v1.95h-1.95Zm0,1.95v-1.95h1.95v1.95h-1.95Zm0,1.95v-1.95h1.95v1.95h-1.95Zm0,1.95v-1.95h1.95v1.95h-1.95Zm1.95,0v1.95h-1.95v-1.95h1.95Zm0,31.22v1.95h-1.95v-1.95h1.95Zm0,1.95v1.95h-1.95v-1.95h1.95Zm0,1.95v1.95h-1.95v-1.95h1.95Zm0,1.95v1.95h-1.95v-1.95h1.95Zm0,1.95v1.95h-1.95v-1.95h1.95Zm0-44.88v-1.95h1.95v1.95h-1.95Zm0,1.95v-1.95h1.95v1.95h-1.95Zm0,1.95v-1.95h1.95v1.95h-1.95Zm0,1.95v-1.95h1.95v1.95h-1.95Zm1.95,0v1.95h-1.95v-1.95h1.95Zm0,31.22v1.95h-1.95v-1.95h1.95Zm0,1.95v1.95h-1.95v-1.95h1.95Zm0,1.95v1.95h-1.95v-1.95h1.95Zm0,1.95v1.95h-1.95v-1.95h1.95Zm0,1.95v1.95h-1.95v-1.95h1.95Zm0-44.88v-1.95h1.95v1.95h-1.95Zm0,1.95v-1.95h1.95v1.95h-1.95Zm0,1.95v-1.95h1.95v1.95h-1.95Zm0,1.95v-1.95h1.95v1.95h-1.95Zm1.95,0v1.95h-1.95v-1.95h1.95Zm0,31.22v1.95h-1.95v-1.95h1.95Zm0,1.95v1.95h-1.95v-1.95h1.95Zm0,1.95v1.95h-1.95v-1.95h1.95Zm0,1.95v1.95h-1.95v-1.95h1.95Zm0,1.95v1.95h-1.95v-1.95h1.95Zm1.95-46.83v1.95h-1.95v-1.95h1.95Zm0,1.95v1.95h-1.95v-1.95h1.95Zm0,1.95v1.95h-1.95v-1.95h1.95Zm0,1.95v1.95h-1.95v-1.95h1.95Zm0,1.95v1.95h-1.95v-1.95h1.95Zm0,31.22v1.95h-1.95v-1.95h1.95Zm0,1.95v1.95h-1.95v-1.95h1.95Zm0,1.95v1.95h-1.95v-1.95h1.95Zm0,1.95v1.95h-1.95v-1.95h1.95Zm0,1.95v1.95h-1.95v-1.95h1.95Zm0-44.88v-1.95h1.95v1.95h-1.95Zm0,1.95v-1.95h1.95v1.95h-1.95Zm0,1.95v-1.95h1.95v1.95h-1.95Zm0,1.95v-1.95h1.95v1.95h-1.95Zm0,1.95v-1.95h1.95v1.95h-1.95Zm1.95,0v1.95h-1.95v-1.95h1.95Zm0,27.32v1.95h-1.95v-1.95h1.95Zm0,1.95v1.95h-1.95v-1.95h1.95Zm0,1.95v1.95h-1.95v-1.95h1.95Zm0,1.95v1.95h-1.95v-1.95h1.95Zm0,1.95v1.95h-1.95v-1.95h1.95Zm0,1.95v1.95h-1.95v-1.95h1.95Zm0-44.88v-1.95h1.95v1.95h-1.95Zm0,1.95v-1.95h1.95v1.95h-1.95Zm0,1.95v-1.95h1.95v1.95h-1.95Zm0,1.95v-1.95h1.95v1.95h-1.95Zm0,1.95v-1.95h1.95v1.95h-1.95Zm0,1.95v-1.95h1.95v1.95h-1.95Zm0,1.95v-1.95h1.95v1.95h-1.95Zm1.95,0v1.95h-1.95v-1.95h1.95Zm0,19.51v1.95h-1.95v-1.95h1.95Zm0,1.95v1.95h-1.95v-1.95h1.95Zm0,1.95v1.95h-1.95v-1.95h1.95Zm0,1.95v1.95h-1.95v-1.95h1.95Zm0,1.95v1.95h-1.95v-1.95h1.95Zm0,1.95v1.95h-1.95v-1.95h1.95Zm0,1.95v1.95h-1.95v-1.95h1.95Zm0,1.95v1.95h-1.95v-1.95h1.95Zm0-42.93v-1.95h1.95v1.95h-1.95Zm0,1.95v-1.95h1.95v1.95h-1.95Zm0,1.95v-1.95h1.95v1.95h-1.95Zm0,1.95v-1.95h1.95v1.95h-1.95Zm0,1.95v-1.95h1.95v1.95h-1.95Zm0,1.95v-1.95h1.95v1.95h-1.95Zm1.95,0v1.95h-1.95v-1.95h1.95Zm0,19.51v1.95h-1.95v-1.95h1.95Zm0,1.95v1.95h-1.95v-1.95h1.95Zm0,1.95v1.95h-1.95v-1.95h1.95Zm0,1.95v1.95h-1.95v-1.95h1.95Zm0,1.95v1.95h-1.95v-1.95h1.95Zm0,1.95v1.95h-1.95v-1.95h1.95Zm0,1.95v1.95h-1.95v-1.95h1.95Zm0-40.98v-1.95h1.95v1.95h-1.95Zm0,1.95v-1.95h1.95v1.95h-1.95Zm0,1.95v-1.95h1.95v1.95h-1.95Zm0,1.95v-1.95h1.95v1.95h-1.95Zm0,1.95v-1.95h1.95v1.95h-1.95Zm0,1.95v-1.95h1.95v1.95h-1.95Zm1.95,0v1.95h-1.95v-1.95h1.95Zm0,19.51v1.95h-1.95v-1.95h1.95Zm0,1.95v1.95h-1.95v-1.95h1.95Zm0,1.95v1.95h-1.95v-1.95h1.95Zm0,1.95v1.95h-1.95v-1.95h1.95Zm0,1.95v1.95h-1.95v-1.95h1.95Zm0,1.95v1.95h-1.95v-1.95h1.95Zm0,1.95v1.95h-1.95v-1.95h1.95Zm0-39.02v-1.95h1.95v1.95h-1.95Zm0,1.95v-1.95h1.95v1.95h-1.95Zm0,1.95v-1.95h1.95v1.95h-1.95Zm0,1.95v-1.95h1.95v1.95h-1.95Zm0,1.95v-1.95h1.95v1.95h-1.95Zm1.95,0v1.95h-1.95v-1.95h1.95Zm0,19.51v1.95h-1.95v-1.95h1.95Zm0,1.95v1.95h-1.95v-1.95h1.95Zm0,1.95v1.95h-1.95v-1.95h1.95Zm0,1.95v1.95h-1.95v-1.95h1.95Zm0,1.95v1.95h-1.95v-1.95h1.95Zm0,1.95v1.95h-1.95v-1.95h1.95Zm0-33.17v-1.95h1.95v1.95h-1.95Zm0,1.95v-1.95h1.95v1.95h-1.95Zm0,1.95v-1.95h1.95v1.95h-1.95Zm1.95,0v1.95h-1.95v-1.95h1.95Zm0,19.51v1.95h-1.95v-1.95h1.95Zm0,1.95v1.95h-1.95v-1.95h1.95Zm0,1.95v1.95h-1.95v-1.95h1.95Zm0,1.95v1.95h-1.95v-1.95h1.95Z"/><path fill="#fff" d="m307.47,306.72v1.95h-1.95v-1.95h1.95Zm0,1.95v1.95h-1.95v-1.95h1.95Zm0,1.95v1.95h-1.95v-1.95h1.95Zm0,1.95v1.95h-1.95v-1.95h1.95Zm0,1.95v1.95h-1.95v-1.95h1.95Zm0,1.95v1.95h-1.95v-1.95h1.95Zm0,1.95v1.95h-1.95v-1.95h1.95Zm0,1.95v1.95h-1.95v-1.95h1.95Zm0,1.95v1.95h-1.95v-1.95h1.95Zm0,1.95v1.95h-1.95v-1.95h1.95Zm0,1.95v1.95h-1.95v-1.95h1.95Zm0,1.95v1.95h-1.95v-1.95h1.95Zm0,1.95v1.95h-1.95v-1.95h1.95Zm0,1.95v1.95h-1.95v-1.95h1.95Zm0,1.95v1.95h-1.95v-1.95h1.95Zm0,1.95v1.95h-1.95v-1.95h1.95Zm0,1.95v1.95h-1.95v-1.95h1.95Zm0,1.95v1.95h-1.95v-1.95h1.95Zm0,1.95v1.95h-1.95v-1.95h1.95Zm0,1.95v1.95h-1.95v-1.95h1.95Zm0,1.95v1.95h-1.95v-1.95h1.95Zm0,1.95v1.95h-1.95v-1.95h1.95Zm0,1.95v1.95h-1.95v-1.95h1.95Zm0,1.95v1.95h-1.95v-1.95h1.95Zm0,1.95v1.95h-1.95v-1.95h1.95Zm1.95-46.83v1.95h-1.95v-1.95h1.95Zm0,1.95v1.95h-1.95v-1.95h1.95Zm0,1.95v1.95h-1.95v-1.95h1.95Zm0,1.95v1.95h-1.95v-1.95h1.95Zm0,1.95v1.95h-1.95v-1.95h1.95Zm0,1.95v1.95h-1.95v-1.95h1.95Zm0,1.95v1.95h-1.95v-1.95h1.95Zm0,1.95v1.95h-1.95v-1.95h1.95Zm0,1.95v1.95h-1.95v-1.95h1.95Zm0,1.95v1.95h-1.95v-1.95h1.95Zm0,1.95v1.95h-1.95v-1.95h1.95Zm0,1.95v1.95h-1.95v-1.95h1.95Zm0,1.95v1.95h-1.95v-1.95h1.95Zm0,1.95v1.95h-1.95v-1.95h1.95Zm0,1.95v1.95h-1.95v-1.95h1.95Zm0,1.95v1.95h-1.95v-1.95h1.95Zm0,1.95v1.95h-1.95v-1.95h1.95Zm0,1.95v1.95h-1.95v-1.95h1.95Zm0,1.95v1.95h-1.95v-1.95h1.95Zm0,1.95v1.95h-1.95v-1.95h1.95Zm0,1.95v1.95h-1.95v-1.95h1.95Zm0,1.95v1.95h-1.95v-1.95h1.95Zm0,1.95v1.95h-1.95v-1.95h1.95Zm0,1.95v1.95h-1.95v-1.95h1.95Zm0,1.95v1.95h-1.95v-1.95h1.95Zm1.95-46.83v1.95h-1.95v-1.95h1.95Zm0,1.95v1.95h-1.95v-1.95h1.95Zm0,1.95v1.95h-1.95v-1.95h1.95Zm0,1.95v1.95h-1.95v-1.95h1.95Zm0,1.95v1.95h-1.95v-1.95h1.95Zm0,1.95v1.95h-1.95v-1.95h1.95Zm0,1.95v1.95h-1.95v-1.95h1.95Zm0,1.95v1.95h-1.95v-1.95h1.95Zm0,1.95v1.95h-1.95v-1.95h1.95Zm0,1.95v1.95h-1.95v-1.95h1.95Zm0,1.95v1.95h-1.95v-1.95h1.95Zm0,1.95v1.95h-1.95v-1.95h1.95Zm0,1.95v1.95h-1.95v-1.95h1.95Zm0,1.95v1.95h-1.95v-1.95h1.95Zm0,1.95v1.95h-1.95v-1.95h1.95Zm0,1.95v1.95h-1.95v-1.95h1.95Zm0,1.95v1.95h-1.95v-1.95h1.95Zm0,1.95v1.95h-1.95v-1.95h1.95Zm0,1.95v1.95h-1.95v-1.95h1.95Zm0,1.95v1.95h-1.95v-1.95h1.95Zm0,1.95v1.95h-1.95v-1.95h1.95Zm0,1.95v1.95h-1.95v-1.95h1.95Zm0,1.95v1.95h-1.95v-1.95h1.95Zm0,1.95v1.95h-1.95v-1.95h1.95Zm0,1.95v1.95h-1.95v-1.95h1.95Zm1.95-46.83v1.95h-1.95v-1.95h1.95Zm0,1.95v1.95h-1.95v-1.95h1.95Zm0,1.95v1.95h-1.95v-1.95h1.95Zm0,1.95v1.95h-1.95v-1.95h1.95Zm0,1.95v1.95h-1.95v-1.95h1.95Zm0,1.95v1.95h-1.95v-1.95h1.95Zm0,1.95v1.95h-1.95v-1.95h1.95Zm0,1.95v1.95h-1.95v-1.95h1.95Zm0,1.95v1.95h-1.95v-1.95h1.95Zm0,1.95v1.95h-1.95v-1.95h1.95Zm0,1.95v1.95h-1.95v-1.95h1.95Zm0,1.95v1.95h-1.95v-1.95h1.95Zm0,1.95v1.95h-1.95v-1.95h1.95Zm0,1.95v1.95h-1.95v-1.95h1.95Zm0,1.95v1.95h-1.95v-1.95h1.95Zm0,1.95v1.95h-1.95v-1.95h1.95Zm0,1.95v1.95h-1.95v-1.95h1.95Zm0,1.95v1.95h-1.95v-1.95h1.95Zm0,1.95v1.95h-1.95v-1.95h1.95Zm0,1.95v1.95h-1.95v-1.95h1.95Zm0,1.95v1.95h-1.95v-1.95h1.95Zm0,1.95v1.95h-1.95v-1.95h1.95Zm0,1.95v1.95h-1.95v-1.95h1.95Zm0,1.95v1.95h-1.95v-1.95h1.95Zm0,1.95v1.95h-1.95v-1.95h1.95Zm1.95-46.83v1.95h-1.95v-1.95h1.95Zm0,1.95v1.95h-1.95v-1.95h1.95Zm0,1.95v1.95h-1.95v-1.95h1.95Zm0,1.95v1.95h-1.95v-1.95h1.95Zm0,1.95v1.95h-1.95v-1.95h1.95Zm0,1.95v1.95h-1.95v-1.95h1.95Zm0,1.95v1.95h-1.95v-1.95h1.95Zm0,1.95v1.95h-1.95v-1.95h1.95Zm0,1.95v1.95h-1.95v-1.95h1.95Zm0,1.95v1.95h-1.95v-1.95h1.95Zm0,1.95v1.95h-1.95v-1.95h1.95Zm0,1.95v1.95h-1.95v-1.95h1.95Zm0,1.95v1.95h-1.95v-1.95h1.95Zm0,1.95v1.95h-1.95v-1.95h1.95Zm0,1.95v1.95h-1.95v-1.95h1.95Zm0,1.95v1.95h-1.95v-1.95h1.95Zm0,1.95v1.95h-1.95v-1.95h1.95Zm0,1.95v1.95h-1.95v-1.95h1.95Zm0,1.95v1.95h-1.95v-1.95h1.95Zm0,1.95v1.95h-1.95v-1.95h1.95Zm0,1.95v1.95h-1.95v-1.95h1.95Zm0,1.95v1.95h-1.95v-1.95h1.95Zm0,1.95v1.95h-1.95v-1.95h1.95Zm0,1.95v1.95h-1.95v-1.95h1.95Zm0,1.95v1.95h-1.95v-1.95h1.95Zm1.95-46.83v1.95h-1.95v-1.95h1.95Zm0,1.95v1.95h-1.95v-1.95h1.95Zm0,1.95v1.95h-1.95v-1.95h1.95Zm0,1.95v1.95h-1.95v-1.95h1.95Zm0,1.95v1.95h-1.95v-1.95h1.95Zm0,15.61v1.95h-1.95v-1.95h1.95Zm0,1.95v1.95h-1.95v-1.95h1.95Zm0,1.95v1.95h-1.95v-1.95h1.95Zm0,1.95v1.95h-1.95v-1.95h1.95Zm0,1.95v1.95h-1.95v-1.95h1.95Zm1.95-31.22v1.95h-1.95v-1.95h1.95Zm0,1.95v1.95h-1.95v-1.95h1.95Zm0,1.95v1.95h-1.95v-1.95h1.95Zm0,1.95v1.95h-1.95v-1.95h1.95Zm0,1.95v1.95h-1.95v-1.95h1.95Zm0,15.61v1.95h-1.95v-1.95h1.95Zm0,1.95v1.95h-1.95v-1.95h1.95Zm0,1.95v1.95h-1.95v-1.95h1.95Zm0,1.95v1.95h-1.95v-1.95h1.95Zm0,1.95v1.95h-1.95v-1.95h1.95Zm1.95-31.22v1.95h-1.95v-1.95h1.95Zm0,1.95v1.95h-1.95v-1.95h1.95Zm0,1.95v1.95h-1.95v-1.95h1.95Zm0,1.95v1.95h-1.95v-1.95h1.95Zm0,1.95v1.95h-1.95v-1.95h1.95Zm0,15.61v1.95h-1.95v-1.95h1.95Zm0,1.95v1.95h-1.95v-1.95h1.95Zm0,1.95v1.95h-1.95v-1.95h1.95Zm0,1.95v1.95h-1.95v-1.95h1.95Zm0,1.95v1.95h-1.95v-1.95h1.95Zm1.95-31.22v1.95h-1.95v-1.95h1.95Zm0,1.95v1.95h-1.95v-1.95h1.95Zm0,1.95v1.95h-1.95v-1.95h1.95Zm0,1.95v1.95h-1.95v-1.95h1.95Zm0,1.95v1.95h-1.95v-1.95h1.95Zm0,15.61v1.95h-1.95v-1.95h1.95Zm0,1.95v1.95h-1.95v-1.95h1.95Zm0,1.95v1.95h-1.95v-1.95h1.95Zm0,1.95v1.95h-1.95v-1.95h1.95Zm0,1.95v1.95h-1.95v-1.95h1.95Zm1.95-31.22v1.95h-1.95v-1.95h1.95Zm0,1.95v1.95h-1.95v-1.95h1.95Zm0,1.95v1.95h-1.95v-1.95h1.95Zm0,1.95v1.95h-1.95v-1.95h1.95Zm0,1.95v1.95h-1.95v-1.95h1.95Zm0,15.61v1.95h-1.95v-1.95h1.95Zm0,1.95v1.95h-1.95v-1.95h1.95Zm0,1.95v1.95h-1.95v-1.95h1.95Zm0,1.95v1.95h-1.95v-1.95h1.95Zm0,1.95v1.95h-1.95v-1.95h1.95Zm1.95-31.22v1.95h-1.95v-1.95h1.95Zm0,1.95v1.95h-1.95v-1.95h1.95Zm0,1.95v1.95h-1.95v-1.95h1.95Zm0,1.95v1.95h-1.95v-1.95h1.95Zm0,1.95v1.95h-1.95v-1.95h1.95Zm0,1.95v1.95h-1.95v-1.95h1.95Zm0,11.71v1.95h-1.95v-1.95h1.95Zm0,1.95v1.95h-1.95v-1.95h1.95Zm0,1.95v1.95h-1.95v-1.95h1.95Zm0,1.95v1.95h-1.95v-1.95h1.95Zm0,1.95v1.95h-1.95v-1.95h1.95Zm0,1.95v1.95h-1.95v-1.95h1.95Zm1.95-31.22v1.95h-1.95v-1.95h1.95Zm0,1.95v1.95h-1.95v-1.95h1.95Zm0,1.95v1.95h-1.95v-1.95h1.95Zm0,1.95v1.95h-1.95v-1.95h1.95Zm0,1.95v1.95h-1.95v-1.95h1.95Zm0,1.95v1.95h-1.95v-1.95h1.95Zm0,1.95v1.95h-1.95v-1.95h1.95Zm0,1.95v1.95h-1.95v-1.95h1.95Zm0,1.95v1.95h-1.95v-1.95h1.95Zm0,1.95v1.95h-1.95v-1.95h1.95Zm0,1.95v1.95h-1.95v-1.95h1.95Zm0,1.95v1.95h-1.95v-1.95h1.95Zm0,1.95v1.95h-1.95v-1.95h1.95Zm0,1.95v1.95h-1.95v-1.95h1.95Zm0,1.95v1.95h-1.95v-1.95h1.95Zm0,1.95v1.95h-1.95v-1.95h1.95Zm0,1.95v1.95h-1.95v-1.95h1.95Zm0,1.95v1.95h-1.95v-1.95h1.95Zm0,1.95v1.95h-1.95v-1.95h1.95Zm0,1.95v1.95h-1.95v-1.95h1.95Zm0,1.95v1.95h-1.95v-1.95h1.95Zm0,1.95v1.95h-1.95v-1.95h1.95Zm0,1.95v1.95h-1.95v-1.95h1.95Zm0,1.95v1.95h-1.95v-1.95h1.95Zm0,1.95v1.95h-1.95v-1.95h1.95Zm1.95-44.88v1.95h-1.95v-1.95h1.95Zm0,1.95v1.95h-1.95v-1.95h1.95Zm0,1.95v1.95h-1.95v-1.95h1.95Zm0,1.95v1.95h-1.95v-1.95h1.95Zm0,1.95v1.95h-1.95v-1.95h1.95Zm0,1.95v1.95h-1.95v-1.95h1.95Zm0,1.95v1.95h-1.95v-1.95h1.95Zm0,1.95v1.95h-1.95v-1.95h1.95Zm0,1.95v1.95h-1.95v-1.95h1.95Zm0,1.95v1.95h-1.95v-1.95h1.95Zm0,1.95v1.95h-1.95v-1.95h1.95Zm0,1.95v1.95h-1.95v-1.95h1.95Zm0,1.95v1.95h-1.95v-1.95h1.95Zm0,1.95v1.95h-1.95v-1.95h1.95Zm0,1.95v1.95h-1.95v-1.95h1.95Zm0,1.95v1.95h-1.95v-1.95h1.95Zm0,1.95v1.95h-1.95v-1.95h1.95Zm0,1.95v1.95h-1.95v-1.95h1.95Zm0,1.95v1.95h-1.95v-1.95h1.95Zm0,1.95v1.95h-1.95v-1.95h1.95Zm0,1.95v1.95h-1.95v-1.95h1.95Zm0,1.95v1.95h-1.95v-1.95h1.95Zm0,1.95v1.95h-1.95v-1.95h1.95Zm0,1.95v1.95h-1.95v-1.95h1.95Zm1.95-44.88v1.95h-1.95v-1.95h1.95Zm0,1.95v1.95h-1.95v-1.95h1.95Zm0,1.95v1.95h-1.95v-1.95h1.95Zm0,1.95v1.95h-1.95v-1.95h1.95Zm0,1.95v1.95h-1.95v-1.95h1.95Zm0,1.95v1.95h-1.95v-1.95h1.95Zm0,1.95v1.95h-1.95v-1.95h1.95Zm0,1.95v1.95h-1.95v-1.95h1.95Zm0,1.95v1.95h-1.95v-1.95h1.95Zm0,1.95v1.95h-1.95v-1.95h1.95Zm0,1.95v1.95h-1.95v-1.95h1.95Zm0,1.95v1.95h-1.95v-1.95h1.95Zm0,1.95v1.95h-1.95v-1.95h1.95Zm0,1.95v1.95h-1.95v-1.95h1.95Zm0,1.95v1.95h-1.95v-1.95h1.95Zm0,1.95v1.95h-1.95v-1.95h1.95Zm0,1.95v1.95h-1.95v-1.95h1.95Zm0,1.95v1.95h-1.95v-1.95h1.95Zm0,1.95v1.95h-1.95v-1.95h1.95Zm0,1.95v1.95h-1.95v-1.95h1.95Zm0,1.95v1.95h-1.95v-1.95h1.95Zm0,1.95v1.95h-1.95v-1.95h1.95Zm0,1.95v1.95h-1.95v-1.95h1.95Zm0,1.95v1.95h-1.95v-1.95h1.95Zm1.95-42.93v1.95h-1.95v-1.95h1.95Zm0,1.95v1.95h-1.95v-1.95h1.95Zm0,1.95v1.95h-1.95v-1.95h1.95Zm0,1.95v1.95h-1.95v-1.95h1.95Zm0,1.95v1.95h-1.95v-1.95h1.95Zm0,1.95v1.95h-1.95v-1.95h1.95Zm0,1.95v1.95h-1.95v-1.95h1.95Zm0,1.95v1.95h-1.95v-1.95h1.95Zm0,1.95v1.95h-1.95v-1.95h1.95Zm0,1.95v1.95h-1.95v-1.95h1.95Zm0,1.95v1.95h-1.95v-1.95h1.95Zm0,1.95v1.95h-1.95v-1.95h1.95Zm0,3.9v1.95h-1.95v-1.95h1.95Zm0,1.95v1.95h-1.95v-1.95h1.95Zm0,1.95v1.95h-1.95v-1.95h1.95Zm0,1.95v1.95h-1.95v-1.95h1.95Zm0,1.95v1.95h-1.95v-1.95h1.95Zm0,1.95v1.95h-1.95v-1.95h1.95Zm0,1.95v1.95h-1.95v-1.95h1.95Zm0,1.95v1.95h-1.95v-1.95h1.95Zm0,1.95v1.95h-1.95v-1.95h1.95Zm0,1.95v1.95h-1.95v-1.95h1.95Zm1.95-39.02v1.95h-1.95v-1.95h1.95Zm0,1.95v1.95h-1.95v-1.95h1.95Zm0,1.95v1.95h-1.95v-1.95h1.95Zm0,1.95v1.95h-1.95v-1.95h1.95Zm0,1.95v1.95h-1.95v-1.95h1.95Zm0,1.95v1.95h-1.95v-1.95h1.95Zm0,1.95v1.95h-1.95v-1.95h1.95Zm0,1.95v1.95h-1.95v-1.95h1.95Zm0,1.95v1.95h-1.95v-1.95h1.95Zm0,7.81v1.95h-1.95v-1.95h1.95Zm0,1.95v1.95h-1.95v-1.95h1.95Zm0,1.95v1.95h-1.95v-1.95h1.95Zm0,1.95v1.95h-1.95v-1.95h1.95Zm0,1.95v1.95h-1.95v-1.95h1.95Zm0,1.95v1.95h-1.95v-1.95h1.95Zm0,1.95v1.95h-1.95v-1.95h1.95Zm0,1.95v1.95h-1.95v-1.95h1.95Zm0,1.95v1.95h-1.95v-1.95h1.95Z"/><path fill="#fff" d="m346.49,306.72v1.95h-1.95v-1.95h1.95Zm0,1.95v1.95h-1.95v-1.95h1.95Zm0,1.95v1.95h-1.95v-1.95h1.95Zm0,1.95v1.95h-1.95v-1.95h1.95Zm0,1.95v1.95h-1.95v-1.95h1.95Zm0,1.95v1.95h-1.95v-1.95h1.95Zm0,1.95v1.95h-1.95v-1.95h1.95Zm0,1.95v1.95h-1.95v-1.95h1.95Zm0,1.95v1.95h-1.95v-1.95h1.95Zm0,1.95v1.95h-1.95v-1.95h1.95Zm0,1.95v1.95h-1.95v-1.95h1.95Zm0,1.95v1.95h-1.95v-1.95h1.95Zm0,1.95v1.95h-1.95v-1.95h1.95Zm0,1.95v1.95h-1.95v-1.95h1.95Zm0,1.95v1.95h-1.95v-1.95h1.95Zm0,1.95v1.95h-1.95v-1.95h1.95Zm0,1.95v1.95h-1.95v-1.95h1.95Zm0,1.95v1.95h-1.95v-1.95h1.95Zm0,1.95v1.95h-1.95v-1.95h1.95Zm0,1.95v1.95h-1.95v-1.95h1.95Zm0,1.95v1.95h-1.95v-1.95h1.95Zm0,1.95v1.95h-1.95v-1.95h1.95Zm0,1.95v1.95h-1.95v-1.95h1.95Zm0,1.95v1.95h-1.95v-1.95h1.95Zm0,1.95v1.95h-1.95v-1.95h1.95Zm1.95-46.83v1.95h-1.95v-1.95h1.95Zm0,1.95v1.95h-1.95v-1.95h1.95Zm0,1.95v1.95h-1.95v-1.95h1.95Zm0,1.95v1.95h-1.95v-1.95h1.95Zm0,1.95v1.95h-1.95v-1.95h1.95Zm0,1.95v1.95h-1.95v-1.95h1.95Zm0,1.95v1.95h-1.95v-1.95h1.95Zm0,1.95v1.95h-1.95v-1.95h1.95Zm0,1.95v1.95h-1.95v-1.95h1.95Zm0,1.95v1.95h-1.95v-1.95h1.95Zm0,1.95v1.95h-1.95v-1.95h1.95Zm0,1.95v1.95h-1.95v-1.95h1.95Zm0,1.95v1.95h-1.95v-1.95h1.95Zm0,1.95v1.95h-1.95v-1.95h1.95Zm0,1.95v1.95h-1.95v-1.95h1.95Zm0,1.95v1.95h-1.95v-1.95h1.95Zm0,1.95v1.95h-1.95v-1.95h1.95Zm0,1.95v1.95h-1.95v-1.95h1.95Zm0,1.95v1.95h-1.95v-1.95h1.95Zm0,1.95v1.95h-1.95v-1.95h1.95Zm0,1.95v1.95h-1.95v-1.95h1.95Zm0,1.95v1.95h-1.95v-1.95h1.95Zm0,1.95v1.95h-1.95v-1.95h1.95Zm0,1.95v1.95h-1.95v-1.95h1.95Zm0,1.95v1.95h-1.95v-1.95h1.95Zm1.95-46.83v1.95h-1.95v-1.95h1.95Zm0,1.95v1.95h-1.95v-1.95h1.95Zm0,1.95v1.95h-1.95v-1.95h1.95Zm0,1.95v1.95h-1.95v-1.95h1.95Zm0,1.95v1.95h-1.95v-1.95h1.95Zm0,1.95v1.95h-1.95v-1.95h1.95Zm0,1.95v1.95h-1.95v-1.95h1.95Zm0,1.95v1.95h-1.95v-1.95h1.95Zm0,1.95v1.95h-1.95v-1.95h1.95Zm0,1.95v1.95h-1.95v-1.95h1.95Zm0,1.95v1.95h-1.95v-1.95h1.95Zm0,1.95v1.95h-1.95v-1.95h1.95Zm0,1.95v1.95h-1.95v-1.95h1.95Zm0,1.95v1.95h-1.95v-1.95h1.95Zm0,1.95v1.95h-1.95v-1.95h1.95Zm0,1.95v1.95h-1.95v-1.95h1.95Zm0,1.95v1.95h-1.95v-1.95h1.95Zm0,1.95v1.95h-1.95v-1.95h1.95Zm0,1.95v1.95h-1.95v-1.95h1.95Zm0,1.95v1.95h-1.95v-1.95h1.95Zm0,1.95v1.95h-1.95v-1.95h1.95Zm0,1.95v1.95h-1.95v-1.95h1.95Zm0,1.95v1.95h-1.95v-1.95h1.95Zm0,1.95v1.95h-1.95v-1.95h1.95Zm0,1.95v1.95h-1.95v-1.95h1.95Zm1.95-46.83v1.95h-1.95v-1.95h1.95Zm0,1.95v1.95h-1.95v-1.95h1.95Zm0,1.95v1.95h-1.95v-1.95h1.95Zm0,1.95v1.95h-1.95v-1.95h1.95Zm0,1.95v1.95h-1.95v-1.95h1.95Zm0,1.95v1.95h-1.95v-1.95h1.95Zm0,1.95v1.95h-1.95v-1.95h1.95Zm0,1.95v1.95h-1.95v-1.95h1.95Zm0,1.95v1.95h-1.95v-1.95h1.95Zm0,1.95v1.95h-1.95v-1.95h1.95Zm0,1.95v1.95h-1.95v-1.95h1.95Zm0,1.95v1.95h-1.95v-1.95h1.95Zm0,1.95v1.95h-1.95v-1.95h1.95Zm0,1.95v1.95h-1.95v-1.95h1.95Zm0,1.95v1.95h-1.95v-1.95h1.95Zm0,1.95v1.95h-1.95v-1.95h1.95Zm0,1.95v1.95h-1.95v-1.95h1.95Zm0,1.95v1.95h-1.95v-1.95h1.95Zm0,1.95v1.95h-1.95v-1.95h1.95Zm0,1.95v1.95h-1.95v-1.95h1.95Zm0,1.95v1.95h-1.95v-1.95h1.95Zm0,1.95v1.95h-1.95v-1.95h1.95Zm0,1.95v1.95h-1.95v-1.95h1.95Zm0,1.95v1.95h-1.95v-1.95h1.95Zm0,1.95v1.95h-1.95v-1.95h1.95Zm1.95-46.83v1.95h-1.95v-1.95h1.95Zm0,1.95v1.95h-1.95v-1.95h1.95Zm0,1.95v1.95h-1.95v-1.95h1.95Zm0,1.95v1.95h-1.95v-1.95h1.95Zm0,1.95v1.95h-1.95v-1.95h1.95Zm0,1.95v1.95h-1.95v-1.95h1.95Zm0,1.95v1.95h-1.95v-1.95h1.95Zm0,1.95v1.95h-1.95v-1.95h1.95Zm0,1.95v1.95h-1.95v-1.95h1.95Zm0,1.95v1.95h-1.95v-1.95h1.95Zm0,1.95v1.95h-1.95v-1.95h1.95Zm0,1.95v1.95h-1.95v-1.95h1.95Zm0,1.95v1.95h-1.95v-1.95h1.95Zm0,1.95v1.95h-1.95v-1.95h1.95Zm0,1.95v1.95h-1.95v-1.95h1.95Zm0,1.95v1.95h-1.95v-1.95h1.95Zm0,1.95v1.95h-1.95v-1.95h1.95Zm0,1.95v1.95h-1.95v-1.95h1.95Zm0,1.95v1.95h-1.95v-1.95h1.95Zm0,1.95v1.95h-1.95v-1.95h1.95Zm0,1.95v1.95h-1.95v-1.95h1.95Zm0,1.95v1.95h-1.95v-1.95h1.95Zm0,1.95v1.95h-1.95v-1.95h1.95Zm0,1.95v1.95h-1.95v-1.95h1.95Zm0,1.95v1.95h-1.95v-1.95h1.95Zm1.95-46.83v1.95h-1.95v-1.95h1.95Zm0,1.95v1.95h-1.95v-1.95h1.95Zm0,1.95v1.95h-1.95v-1.95h1.95Zm0,1.95v1.95h-1.95v-1.95h1.95Zm0,1.95v1.95h-1.95v-1.95h1.95Zm0,11.71v1.95h-1.95v-1.95h1.95Zm0,1.95v1.95h-1.95v-1.95h1.95Zm0,1.95v1.95h-1.95v-1.95h1.95Zm0,1.95v1.95h-1.95v-1.95h1.95Zm0,1.95v1.95h-1.95v-1.95h1.95Zm0,11.71v1.95h-1.95v-1.95h1.95Zm0,1.95v1.95h-1.95v-1.95h1.95Zm0,1.95v1.95h-1.95v-1.95h1.95Zm0,1.95v1.95h-1.95v-1.95h1.95Zm0,1.95v1.95h-1.95v-1.95h1.95Zm1.95-46.83v1.95h-1.95v-1.95h1.95Zm0,1.95v1.95h-1.95v-1.95h1.95Zm0,1.95v1.95h-1.95v-1.95h1.95Zm0,1.95v1.95h-1.95v-1.95h1.95Zm0,1.95v1.95h-1.95v-1.95h1.95Zm0,11.71v1.95h-1.95v-1.95h1.95Zm0,1.95v1.95h-1.95v-1.95h1.95Zm0,1.95v1.95h-1.95v-1.95h1.95Zm0,1.95v1.95h-1.95v-1.95h1.95Zm0,1.95v1.95h-1.95v-1.95h1.95Zm0,11.71v1.95h-1.95v-1.95h1.95Zm0,1.95v1.95h-1.95v-1.95h1.95Zm0,1.95v1.95h-1.95v-1.95h1.95Zm0,1.95v1.95h-1.95v-1.95h1.95Zm0,1.95v1.95h-1.95v-1.95h1.95Zm1.95-46.83v1.95h-1.95v-1.95h1.95Zm0,1.95v1.95h-1.95v-1.95h1.95Zm0,1.95v1.95h-1.95v-1.95h1.95Zm0,1.95v1.95h-1.95v-1.95h1.95Zm0,1.95v1.95h-1.95v-1.95h1.95Zm0,11.71v1.95h-1.95v-1.95h1.95Zm0,1.95v1.95h-1.95v-1.95h1.95Zm0,1.95v1.95h-1.95v-1.95h1.95Zm0,1.95v1.95h-1.95v-1.95h1.95Zm0,1.95v1.95h-1.95v-1.95h1.95Zm0,11.71v1.95h-1.95v-1.95h1.95Zm0,1.95v1.95h-1.95v-1.95h1.95Zm0,1.95v1.95h-1.95v-1.95h1.95Zm0,1.95v1.95h-1.95v-1.95h1.95Zm0,1.95v1.95h-1.95v-1.95h1.95Zm1.95-46.83v1.95h-1.95v-1.95h1.95Zm0,1.95v1.95h-1.95v-1.95h1.95Zm0,1.95v1.95h-1.95v-1.95h1.95Zm0,1.95v1.95h-1.95v-1.95h1.95Zm0,1.95v1.95h-1.95v-1.95h1.95Zm0,11.71v1.95h-1.95v-1.95h1.95Zm0,1.95v1.95h-1.95v-1.95h1.95Zm0,1.95v1.95h-1.95v-1.95h1.95Zm0,1.95v1.95h-1.95v-1.95h1.95Zm0,1.95v1.95h-1.95v-1.95h1.95Zm0,11.71v1.95h-1.95v-1.95h1.95Zm0,1.95v1.95h-1.95v-1.95h1.95Zm0,1.95v1.95h-1.95v-1.95h1.95Zm0,1.95v1.95h-1.95v-1.95h1.95Zm0,1.95v1.95h-1.95v-1.95h1.95Zm1.95-46.83v1.95h-1.95v-1.95h1.95Zm0,1.95v1.95h-1.95v-1.95h1.95Zm0,1.95v1.95h-1.95v-1.95h1.95Zm0,1.95v1.95h-1.95v-1.95h1.95Zm0,1.95v1.95h-1.95v-1.95h1.95Zm0,11.71v1.95h-1.95v-1.95h1.95Zm0,1.95v1.95h-1.95v-1.95h1.95Zm0,1.95v1.95h-1.95v-1.95h1.95Zm0,1.95v1.95h-1.95v-1.95h1.95Zm0,1.95v1.95h-1.95v-1.95h1.95Zm0,11.71v1.95h-1.95v-1.95h1.95Zm0,1.95v1.95h-1.95v-1.95h1.95Zm0,1.95v1.95h-1.95v-1.95h1.95Zm0,1.95v1.95h-1.95v-1.95h1.95Zm0,1.95v1.95h-1.95v-1.95h1.95Zm1.95-46.83v1.95h-1.95v-1.95h1.95Zm0,1.95v1.95h-1.95v-1.95h1.95Zm0,1.95v1.95h-1.95v-1.95h1.95Zm0,1.95v1.95h-1.95v-1.95h1.95Zm0,1.95v1.95h-1.95v-1.95h1.95Zm0,11.71v1.95h-1.95v-1.95h1.95Zm0,1.95v1.95h-1.95v-1.95h1.95Zm0,1.95v1.95h-1.95v-1.95h1.95Zm0,1.95v1.95h-1.95v-1.95h1.95Zm0,1.95v1.95h-1.95v-1.95h1.95Zm0,11.71v1.95h-1.95v-1.95h1.95Zm0,1.95v1.95h-1.95v-1.95h1.95Zm0,1.95v1.95h-1.95v-1.95h1.95Zm0,1.95v1.95h-1.95v-1.95h1.95Zm0,1.95v1.95h-1.95v-1.95h1.95Zm1.95-46.83v1.95h-1.95v-1.95h1.95Zm0,1.95v1.95h-1.95v-1.95h1.95Zm0,1.95v1.95h-1.95v-1.95h1.95Zm0,1.95v1.95h-1.95v-1.95h1.95Zm0,1.95v1.95h-1.95v-1.95h1.95Zm0,11.71v1.95h-1.95v-1.95h1.95Zm0,1.95v1.95h-1.95v-1.95h1.95Zm0,1.95v1.95h-1.95v-1.95h1.95Zm0,1.95v1.95h-1.95v-1.95h1.95Zm0,1.95v1.95h-1.95v-1.95h1.95Zm0,11.71v1.95h-1.95v-1.95h1.95Zm0,1.95v1.95h-1.95v-1.95h1.95Zm0,1.95v1.95h-1.95v-1.95h1.95Zm0,1.95v1.95h-1.95v-1.95h1.95Zm0,1.95v1.95h-1.95v-1.95h1.95Zm1.95-46.83v1.95h-1.95v-1.95h1.95Zm0,1.95v1.95h-1.95v-1.95h1.95Zm0,1.95v1.95h-1.95v-1.95h1.95Zm0,1.95v1.95h-1.95v-1.95h1.95Zm0,1.95v1.95h-1.95v-1.95h1.95Zm0,11.71v1.95h-1.95v-1.95h1.95Zm0,1.95v1.95h-1.95v-1.95h1.95Zm0,1.95v1.95h-1.95v-1.95h1.95Zm0,1.95v1.95h-1.95v-1.95h1.95Zm0,1.95v1.95h-1.95v-1.95h1.95Zm0,11.71v1.95h-1.95v-1.95h1.95Zm0,1.95v1.95h-1.95v-1.95h1.95Zm0,1.95v1.95h-1.95v-1.95h1.95Zm0,1.95v1.95h-1.95v-1.95h1.95Zm0,1.95v1.95h-1.95v-1.95h1.95Zm1.95-46.83v1.95h-1.95v-1.95h1.95Zm0,1.95v1.95h-1.95v-1.95h1.95Zm0,1.95v1.95h-1.95v-1.95h1.95Zm0,1.95v1.95h-1.95v-1.95h1.95Zm0,1.95v1.95h-1.95v-1.95h1.95Zm0,11.71v1.95h-1.95v-1.95h1.95Zm0,1.95v1.95h-1.95v-1.95h1.95Zm0,1.95v1.95h-1.95v-1.95h1.95Zm0,1.95v1.95h-1.95v-1.95h1.95Zm0,1.95v1.95h-1.95v-1.95h1.95Zm0,11.71v1.95h-1.95v-1.95h1.95Zm0,1.95v1.95h-1.95v-1.95h1.95Zm0,1.95v1.95h-1.95v-1.95h1.95Zm0,1.95v1.95h-1.95v-1.95h1.95Zm0,1.95v1.95h-1.95v-1.95h1.95Zm1.95-46.83v1.95h-1.95v-1.95h1.95Zm0,1.95v1.95h-1.95v-1.95h1.95Zm0,1.95v1.95h-1.95v-1.95h1.95Zm0,1.95v1.95h-1.95v-1.95h1.95Zm0,1.95v1.95h-1.95v-1.95h1.95Zm0,31.22v1.95h-1.95v-1.95h1.95Zm0,1.95v1.95h-1.95v-1.95h1.95Zm0,1.95v1.95h-1.95v-1.95h1.95Zm0,1.95v1.95h-1.95v-1.95h1.95Zm0,1.95v1.95h-1.95v-1.95h1.95Zm1.95-46.83v1.95h-1.95v-1.95h1.95Zm0,1.95v1.95h-1.95v-1.95h1.95Zm0,1.95v1.95h-1.95v-1.95h1.95Zm0,1.95v1.95h-1.95v-1.95h1.95Zm0,1.95v1.95h-1.95v-1.95h1.95Zm0,31.22v1.95h-1.95v-1.95h1.95Zm0,1.95v1.95h-1.95v-1.95h1.95Zm0,1.95v1.95h-1.95v-1.95h1.95Zm0,1.95v1.95h-1.95v-1.95h1.95Zm0,1.95v1.95h-1.95v-1.95h1.95Z"/><path fill="#fff" d="m385.52,306.72v1.95h-1.95v-1.95h1.95Zm0,1.95v1.95h-1.95v-1.95h1.95Zm0,1.95v1.95h-1.95v-1.95h1.95Zm0,1.95v1.95h-1.95v-1.95h1.95Zm0,1.95v1.95h-1.95v-1.95h1.95Zm0,1.95v1.95h-1.95v-1.95h1.95Zm0,1.95v1.95h-1.95v-1.95h1.95Zm0,1.95v1.95h-1.95v-1.95h1.95Zm0,1.95v1.95h-1.95v-1.95h1.95Zm0,1.95v1.95h-1.95v-1.95h1.95Zm0,1.95v1.95h-1.95v-1.95h1.95Zm0,1.95v1.95h-1.95v-1.95h1.95Zm0,1.95v1.95h-1.95v-1.95h1.95Zm0,1.95v1.95h-1.95v-1.95h1.95Zm0,1.95v1.95h-1.95v-1.95h1.95Zm0,1.95v1.95h-1.95v-1.95h1.95Zm0,1.95v1.95h-1.95v-1.95h1.95Zm0,1.95v1.95h-1.95v-1.95h1.95Zm0,1.95v1.95h-1.95v-1.95h1.95Zm0,1.95v1.95h-1.95v-1.95h1.95Zm0,1.95v1.95h-1.95v-1.95h1.95Zm0,1.95v1.95h-1.95v-1.95h1.95Zm0,1.95v1.95h-1.95v-1.95h1.95Zm0,1.95v1.95h-1.95v-1.95h1.95Zm0,1.95v1.95h-1.95v-1.95h1.95Zm1.95-46.83v1.95h-1.95v-1.95h1.95Zm0,1.95v1.95h-1.95v-1.95h1.95Zm0,1.95v1.95h-1.95v-1.95h1.95Zm0,1.95v1.95h-1.95v-1.95h1.95Zm0,1.95v1.95h-1.95v-1.95h1.95Zm0,1.95v1.95h-1.95v-1.95h1.95Zm0,1.95v1.95h-1.95v-1.95h1.95Zm0,1.95v1.95h-1.95v-1.95h1.95Zm0,1.95v1.95h-1.95v-1.95h1.95Zm0,1.95v1.95h-1.95v-1.95h1.95Zm0,1.95v1.95h-1.95v-1.95h1.95Zm0,1.95v1.95h-1.95v-1.95h1.95Zm0,1.95v1.95h-1.95v-1.95h1.95Zm0,1.95v1.95h-1.95v-1.95h1.95Zm0,1.95v1.95h-1.95v-1.95h1.95Zm0,1.95v1.95h-1.95v-1.95h1.95Zm0,1.95v1.95h-1.95v-1.95h1.95Zm0,1.95v1.95h-1.95v-1.95h1.95Zm0,1.95v1.95h-1.95v-1.95h1.95Zm0,1.95v1.95h-1.95v-1.95h1.95Zm0,1.95v1.95h-1.95v-1.95h1.95Zm0,1.95v1.95h-1.95v-1.95h1.95Zm0,1.95v1.95h-1.95v-1.95h1.95Zm0,1.95v1.95h-1.95v-1.95h1.95Zm0,1.95v1.95h-1.95v-1.95h1.95Zm1.95-46.83v1.95h-1.95v-1.95h1.95Zm0,1.95v1.95h-1.95v-1.95h1.95Zm0,1.95v1.95h-1.95v-1.95h1.95Zm0,1.95v1.95h-1.95v-1.95h1.95Zm0,1.95v1.95h-1.95v-1.95h1.95Zm0,1.95v1.95h-1.95v-1.95h1.95Zm0,1.95v1.95h-1.95v-1.95h1.95Zm0,1.95v1.95h-1.95v-1.95h1.95Zm0,1.95v1.95h-1.95v-1.95h1.95Zm0,1.95v1.95h-1.95v-1.95h1.95Zm0,1.95v1.95h-1.95v-1.95h1.95Zm0,1.95v1.95h-1.95v-1.95h1.95Zm0,1.95v1.95h-1.95v-1.95h1.95Zm0,1.95v1.95h-1.95v-1.95h1.95Zm0,1.95v1.95h-1.95v-1.95h1.95Zm0,1.95v1.95h-1.95v-1.95h1.95Zm0,1.95v1.95h-1.95v-1.95h1.95Zm0,1.95v1.95h-1.95v-1.95h1.95Zm0,1.95v1.95h-1.95v-1.95h1.95Zm0,1.95v1.95h-1.95v-1.95h1.95Zm0,1.95v1.95h-1.95v-1.95h1.95Zm0,1.95v1.95h-1.95v-1.95h1.95Zm0,1.95v1.95h-1.95v-1.95h1.95Zm0,1.95v1.95h-1.95v-1.95h1.95Zm0,1.95v1.95h-1.95v-1.95h1.95Zm1.95-46.83v1.95h-1.95v-1.95h1.95Zm0,1.95v1.95h-1.95v-1.95h1.95Zm0,1.95v1.95h-1.95v-1.95h1.95Zm0,1.95v1.95h-1.95v-1.95h1.95Zm0,1.95v1.95h-1.95v-1.95h1.95Zm0,1.95v1.95h-1.95v-1.95h1.95Zm0,1.95v1.95h-1.95v-1.95h1.95Zm0,1.95v1.95h-1.95v-1.95h1.95Zm0,1.95v1.95h-1.95v-1.95h1.95Zm0,1.95v1.95h-1.95v-1.95h1.95Zm0,1.95v1.95h-1.95v-1.95h1.95Zm0,1.95v1.95h-1.95v-1.95h1.95Zm0,1.95v1.95h-1.95v-1.95h1.95Zm0,1.95v1.95h-1.95v-1.95h1.95Zm0,1.95v1.95h-1.95v-1.95h1.95Zm0,1.95v1.95h-1.95v-1.95h1.95Zm0,1.95v1.95h-1.95v-1.95h1.95Zm0,1.95v1.95h-1.95v-1.95h1.95Zm0,1.95v1.95h-1.95v-1.95h1.95Zm0,1.95v1.95h-1.95v-1.95h1.95Zm0,1.95v1.95h-1.95v-1.95h1.95Zm0,1.95v1.95h-1.95v-1.95h1.95Zm0,1.95v1.95h-1.95v-1.95h1.95Zm0,1.95v1.95h-1.95v-1.95h1.95Zm0,1.95v1.95h-1.95v-1.95h1.95Zm1.95-46.83v1.95h-1.95v-1.95h1.95Zm0,1.95v1.95h-1.95v-1.95h1.95Zm0,1.95v1.95h-1.95v-1.95h1.95Zm0,1.95v1.95h-1.95v-1.95h1.95Zm0,1.95v1.95h-1.95v-1.95h1.95Zm0,1.95v1.95h-1.95v-1.95h1.95Zm0,1.95v1.95h-1.95v-1.95h1.95Zm0,1.95v1.95h-1.95v-1.95h1.95Zm0,1.95v1.95h-1.95v-1.95h1.95Zm0,1.95v1.95h-1.95v-1.95h1.95Zm0,1.95v1.95h-1.95v-1.95h1.95Zm0,1.95v1.95h-1.95v-1.95h1.95Zm0,1.95v1.95h-1.95v-1.95h1.95Zm0,1.95v1.95h-1.95v-1.95h1.95Zm0,1.95v1.95h-1.95v-1.95h1.95Zm0,1.95v1.95h-1.95v-1.95h1.95Zm0,1.95v1.95h-1.95v-1.95h1.95Zm0,1.95v1.95h-1.95v-1.95h1.95Zm0,1.95v1.95h-1.95v-1.95h1.95Zm0,1.95v1.95h-1.95v-1.95h1.95Zm0,1.95v1.95h-1.95v-1.95h1.95Zm0,1.95v1.95h-1.95v-1.95h1.95Zm0,1.95v1.95h-1.95v-1.95h1.95Zm0,1.95v1.95h-1.95v-1.95h1.95Zm0,1.95v1.95h-1.95v-1.95h1.95Zm1.95-46.83v1.95h-1.95v-1.95h1.95Zm0,1.95v1.95h-1.95v-1.95h1.95Zm0,1.95v1.95h-1.95v-1.95h1.95Zm0,1.95v1.95h-1.95v-1.95h1.95Zm0,1.95v1.95h-1.95v-1.95h1.95Zm0,15.61v1.95h-1.95v-1.95h1.95Zm0,1.95v1.95h-1.95v-1.95h1.95Zm0,1.95v1.95h-1.95v-1.95h1.95Zm0,1.95v1.95h-1.95v-1.95h1.95Zm0,1.95v1.95h-1.95v-1.95h1.95Zm1.95-31.22v1.95h-1.95v-1.95h1.95Zm0,1.95v1.95h-1.95v-1.95h1.95Zm0,1.95v1.95h-1.95v-1.95h1.95Zm0,1.95v1.95h-1.95v-1.95h1.95Zm0,1.95v1.95h-1.95v-1.95h1.95Zm0,15.61v1.95h-1.95v-1.95h1.95Zm0,1.95v1.95h-1.95v-1.95h1.95Zm0,1.95v1.95h-1.95v-1.95h1.95Zm0,1.95v1.95h-1.95v-1.95h1.95Zm0,1.95v1.95h-1.95v-1.95h1.95Zm1.95-31.22v1.95h-1.95v-1.95h1.95Zm0,1.95v1.95h-1.95v-1.95h1.95Zm0,1.95v1.95h-1.95v-1.95h1.95Zm0,1.95v1.95h-1.95v-1.95h1.95Zm0,1.95v1.95h-1.95v-1.95h1.95Zm0,15.61v1.95h-1.95v-1.95h1.95Zm0,1.95v1.95h-1.95v-1.95h1.95Zm0,1.95v1.95h-1.95v-1.95h1.95Zm0,1.95v1.95h-1.95v-1.95h1.95Zm0,1.95v1.95h-1.95v-1.95h1.95Zm1.95-31.22v1.95h-1.95v-1.95h1.95Zm0,1.95v1.95h-1.95v-1.95h1.95Zm0,1.95v1.95h-1.95v-1.95h1.95Zm0,1.95v1.95h-1.95v-1.95h1.95Zm0,1.95v1.95h-1.95v-1.95h1.95Zm0,15.61v1.95h-1.95v-1.95h1.95Zm0,1.95v1.95h-1.95v-1.95h1.95Zm0,1.95v1.95h-1.95v-1.95h1.95Zm0,1.95v1.95h-1.95v-1.95h1.95Zm0,1.95v1.95h-1.95v-1.95h1.95Zm1.95-31.22v1.95h-1.95v-1.95h1.95Zm0,1.95v1.95h-1.95v-1.95h1.95Zm0,1.95v1.95h-1.95v-1.95h1.95Zm0,1.95v1.95h-1.95v-1.95h1.95Zm0,1.95v1.95h-1.95v-1.95h1.95Zm0,15.61v1.95h-1.95v-1.95h1.95Zm0,1.95v1.95h-1.95v-1.95h1.95Zm0,1.95v1.95h-1.95v-1.95h1.95Zm0,1.95v1.95h-1.95v-1.95h1.95Zm0,1.95v1.95h-1.95v-1.95h1.95Zm1.95-31.22v1.95h-1.95v-1.95h1.95Zm0,1.95v1.95h-1.95v-1.95h1.95Zm0,1.95v1.95h-1.95v-1.95h1.95Zm0,1.95v1.95h-1.95v-1.95h1.95Zm0,1.95v1.95h-1.95v-1.95h1.95Zm0,1.95v1.95h-1.95v-1.95h1.95Zm0,11.71v1.95h-1.95v-1.95h1.95Zm0,1.95v1.95h-1.95v-1.95h1.95Zm0,1.95v1.95h-1.95v-1.95h1.95Zm0,1.95v1.95h-1.95v-1.95h1.95Zm0,1.95v1.95h-1.95v-1.95h1.95Zm0,1.95v1.95h-1.95v-1.95h1.95Zm1.95-31.22v1.95h-1.95v-1.95h1.95Zm0,1.95v1.95h-1.95v-1.95h1.95Zm0,1.95v1.95h-1.95v-1.95h1.95Zm0,1.95v1.95h-1.95v-1.95h1.95Zm0,1.95v1.95h-1.95v-1.95h1.95Zm0,1.95v1.95h-1.95v-1.95h1.95Zm0,1.95v1.95h-1.95v-1.95h1.95Zm0,1.95v1.95h-1.95v-1.95h1.95Zm0,1.95v1.95h-1.95v-1.95h1.95Zm0,1.95v1.95h-1.95v-1.95h1.95Zm0,1.95v1.95h-1.95v-1.95h1.95Zm0,1.95v1.95h-1.95v-1.95h1.95Zm0,1.95v1.95h-1.95v-1.95h1.95Zm0,1.95v1.95h-1.95v-1.95h1.95Zm0,1.95v1.95h-1.95v-1.95h1.95Zm0,1.95v1.95h-1.95v-1.95h1.95Zm0,1.95v1.95h-1.95v-1.95h1.95Zm1.95-29.27v1.95h-1.95v-1.95h1.95Zm0,1.95v1.95h-1.95v-1.95h1.95Zm0,1.95v1.95h-1.95v-1.95h1.95Zm0,1.95v1.95h-1.95v-1.95h1.95Zm0,1.95v1.95h-1.95v-1.95h1.95Zm0,1.95v1.95h-1.95v-1.95h1.95Zm0,1.95v1.95h-1.95v-1.95h1.95Zm0,1.95v1.95h-1.95v-1.95h1.95Zm0,1.95v1.95h-1.95v-1.95h1.95Zm0,1.95v1.95h-1.95v-1.95h1.95Zm0,1.95v1.95h-1.95v-1.95h1.95Zm0,1.95v1.95h-1.95v-1.95h1.95Zm0,1.95v1.95h-1.95v-1.95h1.95Zm0,1.95v1.95h-1.95v-1.95h1.95Zm0,1.95v1.95h-1.95v-1.95h1.95Zm0,1.95v1.95h-1.95v-1.95h1.95Zm1.95-29.27v1.95h-1.95v-1.95h1.95Zm0,1.95v1.95h-1.95v-1.95h1.95Zm0,1.95v1.95h-1.95v-1.95h1.95Zm0,1.95v1.95h-1.95v-1.95h1.95Zm0,1.95v1.95h-1.95v-1.95h1.95Zm0,1.95v1.95h-1.95v-1.95h1.95Zm0,1.95v1.95h-1.95v-1.95h1.95Zm0,1.95v1.95h-1.95v-1.95h1.95Zm0,1.95v1.95h-1.95v-1.95h1.95Zm0,1.95v1.95h-1.95v-1.95h1.95Zm0,1.95v1.95h-1.95v-1.95h1.95Zm0,1.95v1.95h-1.95v-1.95h1.95Zm0,1.95v1.95h-1.95v-1.95h1.95Zm0,1.95v1.95h-1.95v-1.95h1.95Zm0,1.95v1.95h-1.95v-1.95h1.95Zm1.95-25.37v1.95h-1.95v-1.95h1.95Zm0,1.95v1.95h-1.95v-1.95h1.95Zm0,1.95v1.95h-1.95v-1.95h1.95Zm0,1.95v1.95h-1.95v-1.95h1.95Zm0,1.95v1.95h-1.95v-1.95h1.95Zm0,1.95v1.95h-1.95v-1.95h1.95Zm0,1.95v1.95h-1.95v-1.95h1.95Zm0,1.95v1.95h-1.95v-1.95h1.95Zm0,1.95v1.95h-1.95v-1.95h1.95Zm0,1.95v1.95h-1.95v-1.95h1.95Zm0,1.95v1.95h-1.95v-1.95h1.95Zm0,1.95v1.95h-1.95v-1.95h1.95Zm1.95-17.56v1.95h-1.95v-1.95h1.95Zm0,1.95v1.95h-1.95v-1.95h1.95Zm0,1.95v1.95h-1.95v-1.95h1.95Zm0,1.95v1.95h-1.95v-1.95h1.95Zm0,1.95v1.95h-1.95v-1.95h1.95Zm0,1.95v1.95h-1.95v-1.95h1.95Zm0,1.95v1.95h-1.95v-1.95h1.95Zm0,1.95v1.95h-1.95v-1.95h1.95Zm0,1.95v1.95h-1.95v-1.95h1.95Z"/><path fill="#fff" d="m424.54,306.72v1.95h-1.95v-1.95h1.95Zm0,1.95v1.95h-1.95v-1.95h1.95Zm0,1.95v1.95h-1.95v-1.95h1.95Zm0,1.95v1.95h-1.95v-1.95h1.95Zm0,1.95v1.95h-1.95v-1.95h1.95Zm1.95-7.8v1.95h-1.95v-1.95h1.95Zm0,1.95v1.95h-1.95v-1.95h1.95Zm0,1.95v1.95h-1.95v-1.95h1.95Zm0,1.95v1.95h-1.95v-1.95h1.95Zm0,1.95v1.95h-1.95v-1.95h1.95Zm1.95-7.8v1.95h-1.95v-1.95h1.95Zm0,1.95v1.95h-1.95v-1.95h1.95Zm0,1.95v1.95h-1.95v-1.95h1.95Zm0,1.95v1.95h-1.95v-1.95h1.95Zm0,1.95v1.95h-1.95v-1.95h1.95Zm1.95-7.8v1.95h-1.95v-1.95h1.95Zm0,1.95v1.95h-1.95v-1.95h1.95Zm0,1.95v1.95h-1.95v-1.95h1.95Zm0,1.95v1.95h-1.95v-1.95h1.95Zm0,1.95v1.95h-1.95v-1.95h1.95Zm1.95-7.8v1.95h-1.95v-1.95h1.95Zm0,1.95v1.95h-1.95v-1.95h1.95Zm0,1.95v1.95h-1.95v-1.95h1.95Zm0,1.95v1.95h-1.95v-1.95h1.95Zm0,1.95v1.95h-1.95v-1.95h1.95Zm1.95-7.8v1.95h-1.95v-1.95h1.95Zm0,1.95v1.95h-1.95v-1.95h1.95Zm0,1.95v1.95h-1.95v-1.95h1.95Zm0,1.95v1.95h-1.95v-1.95h1.95Zm0,1.95v1.95h-1.95v-1.95h1.95Zm0,1.95v1.95h-1.95v-1.95h1.95Zm0,1.95v1.95h-1.95v-1.95h1.95Zm0,1.95v1.95h-1.95v-1.95h1.95Zm0,1.95v1.95h-1.95v-1.95h1.95Zm0,1.95v1.95h-1.95v-1.95h1.95Zm0,1.95v1.95h-1.95v-1.95h1.95Zm0,1.95v1.95h-1.95v-1.95h1.95Zm0,1.95v1.95h-1.95v-1.95h1.95Zm0,1.95v1.95h-1.95v-1.95h1.95Zm0,1.95v1.95h-1.95v-1.95h1.95Zm0,1.95v1.95h-1.95v-1.95h1.95Zm0,1.95v1.95h-1.95v-1.95h1.95Zm0,1.95v1.95h-1.95v-1.95h1.95Zm0,1.95v1.95h-1.95v-1.95h1.95Zm0,1.95v1.95h-1.95v-1.95h1.95Zm0,1.95v1.95h-1.95v-1.95h1.95Zm0,1.95v1.95h-1.95v-1.95h1.95Zm0,1.95v1.95h-1.95v-1.95h1.95Zm0,1.95v1.95h-1.95v-1.95h1.95Zm0,1.95v1.95h-1.95v-1.95h1.95Zm1.95-46.83v1.95h-1.95v-1.95h1.95Zm0,1.95v1.95h-1.95v-1.95h1.95Zm0,1.95v1.95h-1.95v-1.95h1.95Zm0,1.95v1.95h-1.95v-1.95h1.95Zm0,1.95v1.95h-1.95v-1.95h1.95Zm0,1.95v1.95h-1.95v-1.95h1.95Zm0,1.95v1.95h-1.95v-1.95h1.95Zm0,1.95v1.95h-1.95v-1.95h1.95Zm0,1.95v1.95h-1.95v-1.95h1.95Zm0,1.95v1.95h-1.95v-1.95h1.95Zm0,1.95v1.95h-1.95v-1.95h1.95Zm0,1.95v1.95h-1.95v-1.95h1.95Zm0,1.95v1.95h-1.95v-1.95h1.95Zm0,1.95v1.95h-1.95v-1.95h1.95Zm0,1.95v1.95h-1.95v-1.95h1.95Zm0,1.95v1.95h-1.95v-1.95h1.95Zm0,1.95v1.95h-1.95v-1.95h1.95Zm0,1.95v1.95h-1.95v-1.95h1.95Zm0,1.95v1.95h-1.95v-1.95h1.95Zm0,1.95v1.95h-1.95v-1.95h1.95Zm0,1.95v1.95h-1.95v-1.95h1.95Zm0,1.95v1.95h-1.95v-1.95h1.95Zm0,1.95v1.95h-1.95v-1.95h1.95Zm0,1.95v1.95h-1.95v-1.95h1.95Zm0,1.95v1.95h-1.95v-1.95h1.95Zm1.95-46.83v1.95h-1.95v-1.95h1.95Zm0,1.95v1.95h-1.95v-1.95h1.95Zm0,1.95v1.95h-1.95v-1.95h1.95Zm0,1.95v1.95h-1.95v-1.95h1.95Zm0,1.95v1.95h-1.95v-1.95h1.95Zm0,1.95v1.95h-1.95v-1.95h1.95Zm0,1.95v1.95h-1.95v-1.95h1.95Zm0,1.95v1.95h-1.95v-1.95h1.95Zm0,1.95v1.95h-1.95v-1.95h1.95Zm0,1.95v1.95h-1.95v-1.95h1.95Zm0,1.95v1.95h-1.95v-1.95h1.95Zm0,1.95v1.95h-1.95v-1.95h1.95Zm0,1.95v1.95h-1.95v-1.95h1.95Zm0,1.95v1.95h-1.95v-1.95h1.95Zm0,1.95v1.95h-1.95v-1.95h1.95Zm0,1.95v1.95h-1.95v-1.95h1.95Zm0,1.95v1.95h-1.95v-1.95h1.95Zm0,1.95v1.95h-1.95v-1.95h1.95Zm0,1.95v1.95h-1.95v-1.95h1.95Zm0,1.95v1.95h-1.95v-1.95h1.95Zm0,1.95v1.95h-1.95v-1.95h1.95Zm0,1.95v1.95h-1.95v-1.95h1.95Zm0,1.95v1.95h-1.95v-1.95h1.95Zm0,1.95v1.95h-1.95v-1.95h1.95Zm0,1.95v1.95h-1.95v-1.95h1.95Zm1.95-46.83v1.95h-1.95v-1.95h1.95Zm0,1.95v1.95h-1.95v-1.95h1.95Zm0,1.95v1.95h-1.95v-1.95h1.95Zm0,1.95v1.95h-1.95v-1.95h1.95Zm0,1.95v1.95h-1.95v-1.95h1.95Zm0,1.95v1.95h-1.95v-1.95h1.95Zm0,1.95v1.95h-1.95v-1.95h1.95Zm0,1.95v1.95h-1.95v-1.95h1.95Zm0,1.95v1.95h-1.95v-1.95h1.95Zm0,1.95v1.95h-1.95v-1.95h1.95Zm0,1.95v1.95h-1.95v-1.95h1.95Zm0,1.95v1.95h-1.95v-1.95h1.95Zm0,1.95v1.95h-1.95v-1.95h1.95Zm0,1.95v1.95h-1.95v-1.95h1.95Zm0,1.95v1.95h-1.95v-1.95h1.95Zm0,1.95v1.95h-1.95v-1.95h1.95Zm0,1.95v1.95h-1.95v-1.95h1.95Zm0,1.95v1.95h-1.95v-1.95h1.95Zm0,1.95v1.95h-1.95v-1.95h1.95Zm0,1.95v1.95h-1.95v-1.95h1.95Zm0,1.95v1.95h-1.95v-1.95h1.95Zm0,1.95v1.95h-1.95v-1.95h1.95Zm0,1.95v1.95h-1.95v-1.95h1.95Zm0,1.95v1.95h-1.95v-1.95h1.95Zm0,1.95v1.95h-1.95v-1.95h1.95Zm1.95-46.83v1.95h-1.95v-1.95h1.95Zm0,1.95v1.95h-1.95v-1.95h1.95Zm0,1.95v1.95h-1.95v-1.95h1.95Zm0,1.95v1.95h-1.95v-1.95h1.95Zm0,1.95v1.95h-1.95v-1.95h1.95Zm0,1.95v1.95h-1.95v-1.95h1.95Zm0,1.95v1.95h-1.95v-1.95h1.95Zm0,1.95v1.95h-1.95v-1.95h1.95Zm0,1.95v1.95h-1.95v-1.95h1.95Zm0,1.95v1.95h-1.95v-1.95h1.95Zm0,1.95v1.95h-1.95v-1.95h1.95Zm0,1.95v1.95h-1.95v-1.95h1.95Zm0,1.95v1.95h-1.95v-1.95h1.95Zm0,1.95v1.95h-1.95v-1.95h1.95Zm0,1.95v1.95h-1.95v-1.95h1.95Zm0,1.95v1.95h-1.95v-1.95h1.95Zm0,1.95v1.95h-1.95v-1.95h1.95Zm0,1.95v1.95h-1.95v-1.95h1.95Zm0,1.95v1.95h-1.95v-1.95h1.95Zm0,1.95v1.95h-1.95v-1.95h1.95Zm0,1.95v1.95h-1.95v-1.95h1.95Zm0,1.95v1.95h-1.95v-1.95h1.95Zm0,1.95v1.95h-1.95v-1.95h1.95Zm0,1.95v1.95h-1.95v-1.95h1.95Zm0,1.95v1.95h-1.95v-1.95h1.95Zm1.95-46.83v1.95h-1.95v-1.95h1.95Zm0,1.95v1.95h-1.95v-1.95h1.95Zm0,1.95v1.95h-1.95v-1.95h1.95Zm0,1.95v1.95h-1.95v-1.95h1.95Zm0,1.95v1.95h-1.95v-1.95h1.95Zm1.95-7.8v1.95h-1.95v-1.95h1.95Zm0,1.95v1.95h-1.95v-1.95h1.95Zm0,1.95v1.95h-1.95v-1.95h1.95Zm0,1.95v1.95h-1.95v-1.95h1.95Zm0,1.95v1.95h-1.95v-1.95h1.95Zm1.95-7.8v1.95h-1.95v-1.95h1.95Zm0,1.95v1.95h-1.95v-1.95h1.95Zm0,1.95v1.95h-1.95v-1.95h1.95Zm0,1.95v1.95h-1.95v-1.95h1.95Zm0,1.95v1.95h-1.95v-1.95h1.95Zm1.95-7.8v1.95h-1.95v-1.95h1.95Zm0,1.95v1.95h-1.95v-1.95h1.95Zm0,1.95v1.95h-1.95v-1.95h1.95Zm0,1.95v1.95h-1.95v-1.95h1.95Zm0,1.95v1.95h-1.95v-1.95h1.95Zm1.95-7.8v1.95h-1.95v-1.95h1.95Zm0,1.95v1.95h-1.95v-1.95h1.95Zm0,1.95v1.95h-1.95v-1.95h1.95Zm0,1.95v1.95h-1.95v-1.95h1.95Zm0,1.95v1.95h-1.95v-1.95h1.95Z"/><path fill="#fff" d="m88.02,272.53l4.92-.51c.14,1.11.56,2,1.25,2.65s1.49.98,2.39.98c1.03,0,1.9-.42,2.62-1.26s1.07-2.1,1.07-3.79c0-1.58-.35-2.77-1.06-3.56s-1.63-1.19-2.77-1.19c-1.42,0-2.69.63-3.81,1.88l-4.01-.58,2.53-13.41h13.06v4.62h-9.32l-.77,4.38c1.1-.55,2.23-.83,3.38-.83,2.19,0,4.05.8,5.57,2.39s2.29,3.66,2.29,6.21c0,2.12-.62,4.01-1.85,5.68-1.68,2.27-4,3.41-6.98,3.41-2.38,0-4.32-.64-5.82-1.92s-2.4-2.99-2.69-5.15Z"/><path fill="#fff" d="m264.83,275.04v4.59h-17.31c.19-1.73.75-3.38,1.69-4.93s2.79-3.61,5.55-6.18c2.23-2.07,3.59-3.48,4.1-4.22.68-1.02,1.02-2.03,1.02-3.02,0-1.1-.3-1.95-.89-2.54s-1.41-.89-2.45-.89-1.85.31-2.46.93-.96,1.65-1.05,3.09l-4.92-.49c.29-2.72,1.21-4.67,2.76-5.85s3.48-1.78,5.8-1.78c2.54,0,4.54.69,5.99,2.06s2.18,3.08,2.18,5.12c0,1.16-.21,2.26-.62,3.31s-1.08,2.15-1.98,3.3c-.6.76-1.68,1.86-3.23,3.29s-2.55,2.38-2.96,2.85-.75.93-1.01,1.37h9.81Z"/><path fill="#fff" d="m399.66,279.16v-5.19h-10.55v-4.32l11.18-16.37h4.15v16.35h3.2v4.34h-3.2v5.19h-4.78Zm0-9.53v-8.81l-5.92,8.81h5.92Z"/><path fill="#fff" d="m75.36,251.63v-13.6h5.78c1.45,0,2.51.12,3.17.37.66.24,1.19.68,1.58,1.3.4.62.59,1.34.59,2.14,0,1.02-.3,1.86-.9,2.53-.6.67-1.5,1.08-2.69,1.26.59.35,1.08.73,1.47,1.14.39.42.91,1.15,1.56,2.21l1.66,2.65h-3.28l-1.99-2.96c-.71-1.06-1.19-1.72-1.45-2-.26-.27-.54-.46-.83-.57-.29-.1-.75-.15-1.38-.15h-.56v5.68h-2.75Zm2.75-7.85h2.03c1.32,0,2.14-.06,2.47-.17.33-.11.58-.3.77-.58.19-.27.28-.61.28-1.02,0-.46-.12-.83-.37-1.11-.24-.28-.59-.46-1.03-.53-.22-.03-.89-.05-2-.05h-2.14v3.45Z"/><path fill="#fff" d="m88.51,244.91c0-1.38.21-2.55.62-3.49.31-.69.73-1.31,1.27-1.86.53-.55,1.12-.96,1.76-1.22.85-.36,1.82-.54,2.93-.54,2,0,3.61.62,4.81,1.86,1.2,1.24,1.8,2.97,1.8,5.19s-.6,3.91-1.79,5.15c-1.19,1.24-2.79,1.86-4.79,1.86s-3.63-.62-4.82-1.85c-1.19-1.23-1.79-2.93-1.79-5.1Zm2.83-.09c0,1.54.36,2.71,1.07,3.5.71.79,1.61,1.19,2.71,1.19s1.99-.39,2.69-1.18c.7-.79,1.05-1.97,1.05-3.55s-.34-2.72-1.02-3.49c-.68-.77-1.59-1.15-2.72-1.15s-2.04.39-2.74,1.16c-.69.78-1.04,1.95-1.04,3.51Z"/><path fill="#fff" d="m103.92,251.63v-13.49h2.75v11.2h6.83v2.29h-9.57Z"/><path fill="#fff" d="m115.53,251.63v-13.49h2.75v11.2h6.83v2.29h-9.57Z"/><path fill="#fff" d="m222.26,247.2l2.67-.26c.16.9.49,1.56.98,1.98.49.42,1.16.63,1.99.63.88,0,1.55-.19,2-.56.45-.37.67-.81.67-1.31,0-.32-.09-.6-.28-.82-.19-.23-.52-.42-.99-.59-.32-.11-1.06-.31-2.2-.59-1.47-.37-2.5-.81-3.1-1.35-.83-.75-1.25-1.66-1.25-2.74,0-.69.2-1.34.59-1.94.39-.6.96-1.06,1.7-1.38.74-.32,1.63-.47,2.68-.47,1.71,0,2.99.37,3.85,1.12.86.75,1.32,1.75,1.36,3l-2.75.12c-.12-.7-.37-1.2-.76-1.51-.39-.31-.97-.46-1.74-.46s-1.42.16-1.87.49c-.29.21-.44.49-.44.84,0,.32.14.6.41.83.35.29,1.19.59,2.52.91,1.34.32,2.32.64,2.96.98.64.34,1.14.8,1.5,1.38.36.58.54,1.31.54,2.17,0,.78-.22,1.51-.65,2.19-.43.68-1.04,1.19-1.84,1.52-.79.33-1.78.5-2.96.5-1.72,0-3.04-.4-3.96-1.19-.92-.79-1.47-1.95-1.65-3.47Z"/><path fill="#fff" d="m244.33,246.62l2.66.84c-.41,1.48-1.09,2.59-2.04,3.31-.95.72-2.15,1.08-3.61,1.08-1.81,0-3.29-.62-4.45-1.85-1.16-1.23-1.74-2.92-1.74-5.06,0-2.26.58-4.02,1.75-5.27,1.17-1.25,2.71-1.88,4.61-1.88,1.66,0,3.02.49,4.05,1.48.62.58,1.08,1.42,1.39,2.5l-2.72.65c-.16-.71-.5-1.26-1.01-1.67-.51-.41-1.13-.61-1.86-.61-1.01,0-1.83.36-2.45,1.09s-.94,1.9-.94,3.52c0,1.72.31,2.94.93,3.67s1.42,1.09,2.41,1.09c.73,0,1.36-.23,1.88-.7.53-.46.9-1.19,1.13-2.19Z"/><path fill="#fff" d="m249.35,251.63v-13.6h10.08v2.3h-7.34v3.02h6.83v2.29h-6.83v3.7h7.6v2.29h-10.34Z"/><path fill="#fff" d="m262.05,251.63v-13.6h2.67l5.57,9.08v-9.08h2.55v13.6h-2.75l-5.48-8.87v8.87h-2.55Z"/><path fill="#fff" d="m275.75,251.63v-13.6h10.08v2.3h-7.34v3.02h6.83v2.29h-6.83v3.7h7.6v2.29h-10.34Z"/><path fill="#fff" d="m379.23,250.3v-11.3h-4.04v-2.3h10.81v2.3h-4.03v11.3h-2.75Z"/><path fill="#fff" d="m398.63,250.3h-2.99l-1.19-3.09h-5.44l-1.12,3.09h-2.91l5.3-13.6h2.9l5.45,13.6Zm-5.06-5.38l-1.87-5.05-1.84,5.05h3.71Z"/><path fill="#fff" d="m400.12,250.3v-13.6h2.75v6.04l5.55-6.04h3.69l-5.12,5.3,5.4,8.3h-3.55l-3.74-6.38-2.23,2.27v4.11h-2.75Z"/><path fill="#fff" d="m413.81,250.3v-13.6h10.08v2.3h-7.34v3.02h6.83v2.29h-6.83v3.7h7.6v2.29h-10.34Z"/></svg>