<?xml version="1.0" encoding="UTF-8"?><svg id="Layer_1" xmlns="http://www.w3.org/2000/svg" viewBox="0 0 1171.71 305.88"><path d="m.5,61.48v-12.2h12.2v12.2H.5Zm0,12.2v-12.2h12.2v12.2H.5Zm0,12.2v-12.2h12.2v12.2H.5Zm12.2,0v12.2H.5v-12.2h12.2Zm0,12.2v12.19H.5v-12.19h12.2Zm0,12.19v12.2H.5v-12.2h12.2Zm0,12.2v12.2H.5v-12.2h12.2Zm0,12.2v12.2H.5v-12.2h12.2Zm0,12.2v12.2H.5v-12.2h12.2Zm0,12.2v12.19H.5v-12.19h12.2Zm0,12.19v12.2H.5v-12.2h12.2Zm0,12.2v12.2H.5v-12.2h12.2Zm0,12.2v12.2H.5v-12.2h12.2Zm0,12.2v12.2H.5v-12.2h12.2Zm0,12.2v12.19H.5v-12.19h12.2Zm0,12.19v12.2H.5v-12.2h12.2Zm0,12.2v12.2H.5v-12.2h12.2Zm0-207.32v-12.2h12.19v12.2h-12.19Zm0,12.19v-12.19h12.19v12.19h-12.19Zm0,12.2v-12.2h12.19v12.2h-12.19Zm0,12.2v-12.2h12.19v12.2h-12.19Zm0,12.2v-12.2h12.19v12.2h-12.19Zm12.19,0v12.2h-12.19v-12.2h12.19Zm0,12.2v12.19h-12.19v-12.19h12.19Zm0,12.19v12.2h-12.19v-12.2h12.19Zm0,12.2v12.2h-12.19v-12.2h12.19Zm0,12.2v12.2h-12.19v-12.2h12.19Zm0,12.2v12.2h-12.19v-12.2h12.19Zm0,12.2v12.19h-12.19v-12.19h12.19Zm0,12.19v12.2h-12.19v-12.2h12.19Zm0,12.2v12.2h-12.19v-12.2h12.19Zm0,12.2v12.2h-12.19v-12.2h12.19Zm0,12.2v12.2h-12.19v-12.2h12.19Zm0,12.2v12.19h-12.19v-12.19h12.19Zm0,12.19v12.2h-12.19v-12.2h12.19Zm0,12.2v12.2h-12.19v-12.2h12.19Zm0,12.2v12.2h-12.19v-12.2h12.19Zm0,12.2v12.2h-12.19v-12.2h12.19Zm0-243.9v-12.2h12.2v12.2h-12.2Zm0,12.2v-12.2h12.2v12.2h-12.2Zm0,12.19v-12.19h12.2v12.19h-12.2Zm0,12.2v-12.2h12.2v12.2h-12.2Zm0,12.2v-12.2h12.2v12.2h-12.2Zm0,12.2v-12.2h12.2v12.2h-12.2Zm12.2,0v12.2h-12.2v-12.2h12.2Zm0,12.2v12.19h-12.2v-12.19h12.2Zm0,12.19v12.2h-12.2v-12.2h12.2Zm0,12.2v12.2h-12.2v-12.2h12.2Zm0,12.2v12.2h-12.2v-12.2h12.2Zm0,12.2v12.2h-12.2v-12.2h12.2Zm0,12.2v12.19h-12.2v-12.19h12.2Zm0,12.19v12.2h-12.2v-12.2h12.2Zm0,12.2v12.2h-12.2v-12.2h12.2Zm0,12.2v12.2h-12.2v-12.2h12.2Zm0,12.2v12.2h-12.2v-12.2h12.2Zm0,12.2v12.19h-12.2v-12.19h12.2Zm0,12.19v12.2h-12.2v-12.2h12.2Zm0,12.2v12.2h-12.2v-12.2h12.2Zm0,12.2v12.2h-12.2v-12.2h12.2Zm0,12.2v12.2h-12.2v-12.2h12.2Zm0,12.2v12.19h-12.2v-12.19h12.2Zm0-256.1v-12.2h12.2v12.2h-12.2Zm0,12.2v-12.2h12.2v12.2h-12.2Zm0,12.19v-12.19h12.2v12.19h-12.2Zm0,12.2v-12.2h12.2v12.2h-12.2Zm0,12.2v-12.2h12.2v12.2h-12.2Zm0,12.2v-12.2h12.2v12.2h-12.2Zm12.2,0v12.2h-12.2v-12.2h12.2Zm0,12.2v12.19h-12.2v-12.19h12.2Zm0,12.19v12.2h-12.2v-12.2h12.2Zm0,12.2v12.2h-12.2v-12.2h12.2Zm0,12.2v12.2h-12.2v-12.2h12.2Zm0,12.2v12.2h-12.2v-12.2h12.2Zm0,12.2v12.19h-12.2v-12.19h12.2Zm0,12.19v12.2h-12.2v-12.2h12.2Zm0,12.2v12.2h-12.2v-12.2h12.2Zm0,12.2v12.2h-12.2v-12.2h12.2Zm0,12.2v12.2h-12.2v-12.2h12.2Zm0,12.2v12.19h-12.2v-12.19h12.2Zm0,12.19v12.2h-12.2v-12.2h12.2Zm0,12.2v12.2h-12.2v-12.2h12.2Zm0,12.2v12.2h-12.2v-12.2h12.2Zm0,12.2v12.2h-12.2v-12.2h12.2Zm0,12.2v12.19h-12.2v-12.19h12.2Zm0-268.29V.5h12.2v12.2h-12.2Zm0,12.2v-12.2h12.2v12.2h-12.2Zm0,12.2v-12.2h12.2v12.2h-12.2Zm0,12.19v-12.19h12.2v12.19h-12.2Zm0,12.2v-12.2h12.2v12.2h-12.2Zm0,12.2v-12.2h12.2v12.2h-12.2Zm0,12.2v-12.2h12.2v12.2h-12.2Zm12.2,0v12.2h-12.2v-12.2h12.2Zm0,12.2v12.19h-12.2v-12.19h12.2Zm0,12.19v12.2h-12.2v-12.2h12.2Zm0,12.2v12.2h-12.2v-12.2h12.2Zm0,12.2v12.2h-12.2v-12.2h12.2Zm0,12.2v12.2h-12.2v-12.2h12.2Zm0,12.2v12.19h-12.2v-12.19h12.2Zm0,12.19v12.2h-12.2v-12.2h12.2Zm0,12.2v12.2h-12.2v-12.2h12.2Zm0,12.2v12.2h-12.2v-12.2h12.2Zm0,12.2v12.2h-12.2v-12.2h12.2Zm0,12.2v12.19h-12.2v-12.19h12.2Zm0,12.19v12.2h-12.2v-12.2h12.2Zm0,12.2v12.2h-12.2v-12.2h12.2Zm0,12.2v12.2h-12.2v-12.2h12.2Zm0,12.2v12.2h-12.2v-12.2h12.2Zm0,12.2v12.19h-12.2v-12.19h12.2Zm0,12.19v12.2h-12.2v-12.2h12.2Zm0-280.49V.5h12.2v12.2h-12.2Zm0,12.2v-12.2h12.2v12.2h-12.2Zm0,12.2v-12.2h12.2v12.2h-12.2Zm0,12.19v-12.19h12.2v12.19h-12.2Zm0,12.2v-12.2h12.2v12.2h-12.2Zm12.2,0v12.2h-12.2v-12.2h12.2Zm0,170.73v12.2h-12.2v-12.2h12.2Zm0,12.2v12.2h-12.2v-12.2h12.2Zm0,12.2v12.2h-12.2v-12.2h12.2Zm0,12.2v12.2h-12.2v-12.2h12.2Zm0,12.2v12.19h-12.2v-12.19h12.2Zm0,12.19v12.2h-12.2v-12.2h12.2Zm0-280.49V.5h12.19v12.2h-12.19Zm0,12.2v-12.2h12.19v12.2h-12.19Zm0,12.2v-12.2h12.19v12.2h-12.19Zm0,12.19v-12.19h12.19v12.19h-12.19Zm12.19,0v12.2h-12.19v-12.2h12.19Zm0,195.12v12.2h-12.19v-12.2h12.19Zm0,12.2v12.2h-12.19v-12.2h12.19Zm0,12.2v12.2h-12.19v-12.2h12.19Zm0,12.2v12.19h-12.19v-12.19h12.19Zm0,12.19v12.2h-12.19v-12.2h12.19Zm0-280.49V.5h12.2v12.2h-12.2Zm0,12.2v-12.2h12.2v12.2h-12.2Zm0,12.2v-12.2h12.2v12.2h-12.2Zm0,12.19v-12.19h12.2v12.19h-12.2Zm12.2,0v12.2h-12.2v-12.2h12.2Zm0,195.12v12.2h-12.2v-12.2h12.2Zm0,12.2v12.2h-12.2v-12.2h12.2Zm0,12.2v12.2h-12.2v-12.2h12.2Zm0,12.2v12.19h-12.2v-12.19h12.2Zm0,12.19v12.2h-12.2v-12.2h12.2Zm0-280.49V.5h12.2v12.2h-12.2Zm0,12.2v-12.2h12.2v12.2h-12.2Zm0,12.2v-12.2h12.2v12.2h-12.2Zm0,12.19v-12.19h12.2v12.19h-12.2Zm12.2,0v12.2h-12.2v-12.2h12.2Zm0,195.12v12.2h-12.2v-12.2h12.2Zm0,12.2v12.2h-12.2v-12.2h12.2Zm0,12.2v12.2h-12.2v-12.2h12.2Zm0,12.2v12.19h-12.2v-12.19h12.2Zm0,12.19v12.2h-12.2v-12.2h12.2Zm0-280.49V.5h12.2v12.2h-12.2Zm0,12.2v-12.2h12.2v12.2h-12.2Zm0,12.2v-12.2h12.2v12.2h-12.2Zm0,12.19v-12.19h12.2v12.19h-12.2Zm12.2,0v12.2h-12.2v-12.2h12.2Zm0,195.12v12.2h-12.2v-12.2h12.2Zm0,12.2v12.2h-12.2v-12.2h12.2Zm0,12.2v12.2h-12.2v-12.2h12.2Zm0,12.2v12.19h-12.2v-12.19h12.2Zm0,12.19v12.2h-12.2v-12.2h12.2ZM134.65.5v12.2h-12.2V.5h12.2Zm0,12.2v12.2h-12.2v-12.2h12.2Zm0,12.2v12.2h-12.2v-12.2h12.2Zm0,12.2v12.19h-12.2v-12.19h12.2Zm0,12.19v12.2h-12.2v-12.2h12.2Zm0,195.12v12.2h-12.2v-12.2h12.2Zm0,12.2v12.2h-12.2v-12.2h12.2Zm0,12.2v12.2h-12.2v-12.2h12.2Zm0,12.2v12.19h-12.2v-12.19h12.2Zm0,12.19v12.2h-12.2v-12.2h12.2Zm0-280.49V.5h12.2v12.2h-12.2Zm0,12.2v-12.2h12.2v12.2h-12.2Zm0,12.2v-12.2h12.2v12.2h-12.2Zm0,12.19v-12.19h12.2v12.19h-12.2Zm0,12.2v-12.2h12.2v12.2h-12.2Zm12.2,0v12.2h-12.2v-12.2h12.2Zm0,170.73v12.2h-12.2v-12.2h12.2Zm0,12.2v12.2h-12.2v-12.2h12.2Zm0,12.2v12.2h-12.2v-12.2h12.2Zm0,12.2v12.2h-12.2v-12.2h12.2Zm0,12.2v12.19h-12.2v-12.19h12.2Zm0,12.19v12.2h-12.2v-12.2h12.2Zm0-280.49V.5h12.19v12.2h-12.19Zm0,12.2v-12.2h12.19v12.2h-12.19Zm0,12.2v-12.2h12.19v12.2h-12.19Zm0,12.19v-12.19h12.19v12.19h-12.19Zm0,12.2v-12.2h12.19v12.2h-12.19Zm0,12.2v-12.2h12.19v12.2h-12.19Zm0,12.2v-12.2h12.19v12.2h-12.19Zm12.19,0v12.2h-12.19v-12.2h12.19Zm0,121.95v12.2h-12.19v-12.2h12.19Zm0,12.2v12.19h-12.19v-12.19h12.19Zm0,12.19v12.2h-12.19v-12.2h12.19Zm0,12.2v12.2h-12.19v-12.2h12.19Zm0,12.2v12.2h-12.19v-12.2h12.19Zm0,12.2v12.2h-12.19v-12.2h12.19Zm0,12.2v12.19h-12.19v-12.19h12.19Zm0,12.19v12.2h-12.19v-12.2h12.19Zm0-268.29v-12.2h12.2v12.2h-12.2Zm0,12.2v-12.2h12.2v12.2h-12.2Zm0,12.19v-12.19h12.2v12.19h-12.2Zm0,12.2v-12.2h12.2v12.2h-12.2Zm0,12.2v-12.2h12.2v12.2h-12.2Zm0,12.2v-12.2h12.2v12.2h-12.2Zm12.2,0v12.2h-12.2v-12.2h12.2Zm0,121.95v12.2h-12.2v-12.2h12.2Zm0,12.2v12.19h-12.2v-12.19h12.2Zm0,12.19v12.2h-12.2v-12.2h12.2Zm0,12.2v12.2h-12.2v-12.2h12.2Zm0,12.2v12.2h-12.2v-12.2h12.2Zm0,12.2v12.2h-12.2v-12.2h12.2Zm0,12.2v12.19h-12.2v-12.19h12.2Zm0-256.1v-12.2h12.2v12.2h-12.2Zm0,12.2v-12.2h12.2v12.2h-12.2Zm0,12.19v-12.19h12.2v12.19h-12.2Zm0,12.2v-12.2h12.2v12.2h-12.2Zm0,12.2v-12.2h12.2v12.2h-12.2Zm0,12.2v-12.2h12.2v12.2h-12.2Zm12.2,0v12.2h-12.2v-12.2h12.2Zm0,121.95v12.2h-12.2v-12.2h12.2Zm0,12.2v12.19h-12.2v-12.19h12.2Zm0,12.19v12.2h-12.2v-12.2h12.2Zm0,12.2v12.2h-12.2v-12.2h12.2Zm0,12.2v12.2h-12.2v-12.2h12.2Zm0,12.2v12.2h-12.2v-12.2h12.2Zm0,12.2v12.19h-12.2v-12.19h12.2Zm0-243.9v-12.2h12.2v12.2h-12.2Zm0,12.19v-12.19h12.2v12.19h-12.2Zm0,12.2v-12.2h12.2v12.2h-12.2Zm0,12.2v-12.2h12.2v12.2h-12.2Zm0,12.2v-12.2h12.2v12.2h-12.2Zm12.2,0v12.2h-12.2v-12.2h12.2Zm0,121.95v12.2h-12.2v-12.2h12.2Zm0,12.2v12.19h-12.2v-12.19h12.2Zm0,12.19v12.2h-12.2v-12.2h12.2Zm0,12.2v12.2h-12.2v-12.2h12.2Zm0,12.2v12.2h-12.2v-12.2h12.2Zm0,12.2v12.2h-12.2v-12.2h12.2Zm0-207.32v-12.2h12.2v12.2h-12.2Zm0,12.2v-12.2h12.2v12.2h-12.2Zm0,12.2v-12.2h12.2v12.2h-12.2Zm12.2,0v12.2h-12.2v-12.2h12.2Zm0,121.95v12.2h-12.2v-12.2h12.2Zm0,12.2v12.19h-12.2v-12.19h12.2Zm0,12.19v12.2h-12.2v-12.2h12.2Zm0,12.2v12.2h-12.2v-12.2h12.2Z" stroke="#fe0159" stroke-miterlimit="10"/><path d="m268.79.5v12.2h-12.2V.5h12.2Zm0,12.2v12.2h-12.2v-12.2h12.2Zm0,12.2v12.2h-12.2v-12.2h12.2Zm0,12.2v12.19h-12.2v-12.19h12.2Zm0,12.19v12.2h-12.2v-12.2h12.2Zm0,12.2v12.2h-12.2v-12.2h12.2Zm0,12.2v12.2h-12.2v-12.2h12.2Zm0,12.2v12.2h-12.2v-12.2h12.2Zm0,12.2v12.19h-12.2v-12.19h12.2Zm0,12.19v12.2h-12.2v-12.2h12.2Zm0,12.2v12.2h-12.2v-12.2h12.2Zm0,12.2v12.2h-12.2v-12.2h12.2Zm0,12.2v12.2h-12.2v-12.2h12.2Zm0,12.2v12.19h-12.2v-12.19h12.2Zm0,12.19v12.2h-12.2v-12.2h12.2Zm0,12.2v12.2h-12.2v-12.2h12.2Zm0,12.2v12.2h-12.2v-12.2h12.2Zm0,12.2v12.2h-12.2v-12.2h12.2Zm0,12.2v12.19h-12.2v-12.19h12.2Zm0,12.19v12.2h-12.2v-12.2h12.2Zm0,12.2v12.2h-12.2v-12.2h12.2Zm0,12.2v12.2h-12.2v-12.2h12.2Zm0,12.2v12.2h-12.2v-12.2h12.2Zm0,12.2v12.19h-12.2v-12.19h12.2Zm0,12.19v12.2h-12.2v-12.2h12.2ZM280.99.5v12.2h-12.19V.5h12.19Zm0,12.2v12.2h-12.19v-12.2h12.19Zm0,12.2v12.2h-12.19v-12.2h12.19Zm0,12.2v12.19h-12.19v-12.19h12.19Zm0,12.19v12.2h-12.19v-12.2h12.19Zm0,12.2v12.2h-12.19v-12.2h12.19Zm0,12.2v12.2h-12.19v-12.2h12.19Zm0,12.2v12.2h-12.19v-12.2h12.19Zm0,12.2v12.19h-12.19v-12.19h12.19Zm0,12.19v12.2h-12.19v-12.2h12.19Zm0,12.2v12.2h-12.19v-12.2h12.19Zm0,12.2v12.2h-12.19v-12.2h12.19Zm0,12.2v12.2h-12.19v-12.2h12.19Zm0,12.2v12.19h-12.19v-12.19h12.19Zm0,12.19v12.2h-12.19v-12.2h12.19Zm0,12.2v12.2h-12.19v-12.2h12.19Zm0,12.2v12.2h-12.19v-12.2h12.19Zm0,12.2v12.2h-12.19v-12.2h12.19Zm0,12.2v12.19h-12.19v-12.19h12.19Zm0,12.19v12.2h-12.19v-12.2h12.19Zm0,12.2v12.2h-12.19v-12.2h12.19Zm0,12.2v12.2h-12.19v-12.2h12.19Zm0,12.2v12.2h-12.19v-12.2h12.19Zm0,12.2v12.19h-12.19v-12.19h12.19Zm0,12.19v12.2h-12.19v-12.2h12.19ZM293.18.5v12.2h-12.2V.5h12.2Zm0,12.2v12.2h-12.2v-12.2h12.2Zm0,12.2v12.2h-12.2v-12.2h12.2Zm0,12.2v12.19h-12.2v-12.19h12.2Zm0,12.19v12.2h-12.2v-12.2h12.2Zm0,12.2v12.2h-12.2v-12.2h12.2Zm0,12.2v12.2h-12.2v-12.2h12.2Zm0,12.2v12.2h-12.2v-12.2h12.2Zm0,12.2v12.19h-12.2v-12.19h12.2Zm0,12.19v12.2h-12.2v-12.2h12.2Zm0,12.2v12.2h-12.2v-12.2h12.2Zm0,12.2v12.2h-12.2v-12.2h12.2Zm0,12.2v12.2h-12.2v-12.2h12.2Zm0,12.2v12.19h-12.2v-12.19h12.2Zm0,12.19v12.2h-12.2v-12.2h12.2Zm0,12.2v12.2h-12.2v-12.2h12.2Zm0,12.2v12.2h-12.2v-12.2h12.2Zm0,12.2v12.2h-12.2v-12.2h12.2Zm0,12.2v12.19h-12.2v-12.19h12.2Zm0,12.19v12.2h-12.2v-12.2h12.2Zm0,12.2v12.2h-12.2v-12.2h12.2Zm0,12.2v12.2h-12.2v-12.2h12.2Zm0,12.2v12.2h-12.2v-12.2h12.2Zm0,12.2v12.19h-12.2v-12.19h12.2Zm0,12.19v12.2h-12.2v-12.2h12.2ZM305.38.5v12.2h-12.2V.5h12.2Zm0,12.2v12.2h-12.2v-12.2h12.2Zm0,12.2v12.2h-12.2v-12.2h12.2Zm0,12.2v12.19h-12.2v-12.19h12.2Zm0,12.19v12.2h-12.2v-12.2h12.2Zm0,12.2v12.2h-12.2v-12.2h12.2Zm0,12.2v12.2h-12.2v-12.2h12.2Zm0,12.2v12.2h-12.2v-12.2h12.2Zm0,12.2v12.19h-12.2v-12.19h12.2Zm0,12.19v12.2h-12.2v-12.2h12.2Zm0,12.2v12.2h-12.2v-12.2h12.2Zm0,12.2v12.2h-12.2v-12.2h12.2Zm0,12.2v12.2h-12.2v-12.2h12.2Zm0,12.2v12.19h-12.2v-12.19h12.2Zm0,12.19v12.2h-12.2v-12.2h12.2Zm0,12.2v12.2h-12.2v-12.2h12.2Zm0,12.2v12.2h-12.2v-12.2h12.2Zm0,12.2v12.2h-12.2v-12.2h12.2Zm0,12.2v12.19h-12.2v-12.19h12.2Zm0,12.19v12.2h-12.2v-12.2h12.2Zm0,12.2v12.2h-12.2v-12.2h12.2Zm0,12.2v12.2h-12.2v-12.2h12.2Zm0,12.2v12.2h-12.2v-12.2h12.2Zm0,12.2v12.19h-12.2v-12.19h12.2Zm0,12.19v12.2h-12.2v-12.2h12.2ZM317.57.5v12.2h-12.2V.5h12.2Zm0,12.2v12.2h-12.2v-12.2h12.2Zm0,12.2v12.2h-12.2v-12.2h12.2Zm0,12.2v12.19h-12.2v-12.19h12.2Zm0,12.19v12.2h-12.2v-12.2h12.2Zm0,12.2v12.2h-12.2v-12.2h12.2Zm0,12.2v12.2h-12.2v-12.2h12.2Zm0,12.2v12.2h-12.2v-12.2h12.2Zm0,12.2v12.19h-12.2v-12.19h12.2Zm0,12.19v12.2h-12.2v-12.2h12.2Zm0,12.2v12.2h-12.2v-12.2h12.2Zm0,12.2v12.2h-12.2v-12.2h12.2Zm0,12.2v12.2h-12.2v-12.2h12.2Zm0,12.2v12.19h-12.2v-12.19h12.2Zm0,12.19v12.2h-12.2v-12.2h12.2Zm0,12.2v12.2h-12.2v-12.2h12.2Zm0,12.2v12.2h-12.2v-12.2h12.2Zm0,12.2v12.2h-12.2v-12.2h12.2Zm0,12.2v12.19h-12.2v-12.19h12.2Zm0,12.19v12.2h-12.2v-12.2h12.2Zm0,12.2v12.2h-12.2v-12.2h12.2Zm0,12.2v12.2h-12.2v-12.2h12.2Zm0,12.2v12.2h-12.2v-12.2h12.2Zm0,12.2v12.19h-12.2v-12.19h12.2Zm0,12.19v12.2h-12.2v-12.2h12.2ZM329.77.5v12.2h-12.2V.5h12.2Zm0,12.2v12.2h-12.2v-12.2h12.2Zm0,12.2v12.2h-12.2v-12.2h12.2Zm0,12.2v12.19h-12.2v-12.19h12.2Zm0,12.19v12.2h-12.2v-12.2h12.2Zm0,97.56v12.2h-12.2v-12.2h12.2Zm0,12.2v12.19h-12.2v-12.19h12.2Zm0,12.19v12.2h-12.2v-12.2h12.2Zm0,12.2v12.2h-12.2v-12.2h12.2Zm0,12.2v12.2h-12.2v-12.2h12.2ZM341.96.5v12.2h-12.19V.5h12.19Zm0,12.2v12.2h-12.19v-12.2h12.19Zm0,12.2v12.2h-12.19v-12.2h12.19Zm0,12.2v12.19h-12.19v-12.19h12.19Zm0,12.19v12.2h-12.19v-12.2h12.19Zm0,97.56v12.2h-12.19v-12.2h12.19Zm0,12.2v12.19h-12.19v-12.19h12.19Zm0,12.19v12.2h-12.19v-12.2h12.19Zm0,12.2v12.2h-12.19v-12.2h12.19Zm0,12.2v12.2h-12.19v-12.2h12.19ZM354.16.5v12.2h-12.2V.5h12.2Zm0,12.2v12.2h-12.2v-12.2h12.2Zm0,12.2v12.2h-12.2v-12.2h12.2Zm0,12.2v12.19h-12.2v-12.19h12.2Zm0,12.19v12.2h-12.2v-12.2h12.2Zm0,97.56v12.2h-12.2v-12.2h12.2Zm0,12.2v12.19h-12.2v-12.19h12.2Zm0,12.19v12.2h-12.2v-12.2h12.2Zm0,12.2v12.2h-12.2v-12.2h12.2Zm0,12.2v12.2h-12.2v-12.2h12.2ZM366.35.5v12.2h-12.2V.5h12.2Zm0,12.2v12.2h-12.2v-12.2h12.2Zm0,12.2v12.2h-12.2v-12.2h12.2Zm0,12.2v12.19h-12.2v-12.19h12.2Zm0,12.19v12.2h-12.2v-12.2h12.2Zm0,97.56v12.2h-12.2v-12.2h12.2Zm0,12.2v12.19h-12.2v-12.19h12.2Zm0,12.19v12.2h-12.2v-12.2h12.2Zm0,12.2v12.2h-12.2v-12.2h12.2Zm0,12.2v12.2h-12.2v-12.2h12.2ZM378.55.5v12.2h-12.2V.5h12.2Zm0,12.2v12.2h-12.2v-12.2h12.2Zm0,12.2v12.2h-12.2v-12.2h12.2Zm0,12.2v12.19h-12.2v-12.19h12.2Zm0,12.19v12.2h-12.2v-12.2h12.2Zm0,97.56v12.2h-12.2v-12.2h12.2Zm0,12.2v12.19h-12.2v-12.19h12.2Zm0,12.19v12.2h-12.2v-12.2h12.2Zm0,12.2v12.2h-12.2v-12.2h12.2Zm0,12.2v12.2h-12.2v-12.2h12.2ZM390.74.5v12.2h-12.2V.5h12.2Zm0,12.2v12.2h-12.2v-12.2h12.2Zm0,12.2v12.2h-12.2v-12.2h12.2Zm0,12.2v12.19h-12.2v-12.19h12.2Zm0,12.19v12.2h-12.2v-12.2h12.2Zm0,12.2v12.2h-12.2v-12.2h12.2Zm0,73.17v12.2h-12.2v-12.2h12.2Zm0,12.2v12.2h-12.2v-12.2h12.2Zm0,12.2v12.19h-12.2v-12.19h12.2Zm0,12.19v12.2h-12.2v-12.2h12.2Zm0,12.2v12.2h-12.2v-12.2h12.2Zm0,12.2v12.2h-12.2v-12.2h12.2ZM402.94.5v12.2h-12.2V.5h12.2Zm0,12.2v12.2h-12.2v-12.2h12.2Zm0,12.2v12.2h-12.2v-12.2h12.2Zm0,12.2v12.19h-12.2v-12.19h12.2Zm0,12.19v12.2h-12.2v-12.2h12.2Zm0,12.2v12.2h-12.2v-12.2h12.2Zm0,12.2v12.2h-12.2v-12.2h12.2Zm0,12.2v12.2h-12.2v-12.2h12.2Zm0,12.2v12.19h-12.2v-12.19h12.2Zm0,12.19v12.2h-12.2v-12.2h12.2Zm0,12.2v12.2h-12.2v-12.2h12.2Zm0,12.2v12.2h-12.2v-12.2h12.2Zm0,12.2v12.2h-12.2v-12.2h12.2Zm0,12.2v12.19h-12.2v-12.19h12.2Zm0,12.19v12.2h-12.2v-12.2h12.2Zm0,12.2v12.2h-12.2v-12.2h12.2Zm0,12.2v12.2h-12.2v-12.2h12.2Zm0,12.2v12.2h-12.2v-12.2h12.2Zm0,12.2v12.19h-12.2v-12.19h12.2Zm0,12.19v12.2h-12.2v-12.2h12.2Zm0,12.2v12.2h-12.2v-12.2h12.2Zm0,12.2v12.2h-12.2v-12.2h12.2Zm0,12.2v12.2h-12.2v-12.2h12.2Zm0,12.2v12.19h-12.2v-12.19h12.2Zm0,12.19v12.2h-12.2v-12.2h12.2Zm12.19-280.49v12.2h-12.19v-12.2h12.19Zm0,12.2v12.2h-12.19v-12.2h12.19Zm0,12.2v12.19h-12.19v-12.19h12.19Zm0,12.19v12.2h-12.19v-12.2h12.19Zm0,12.2v12.2h-12.19v-12.2h12.19Zm0,12.2v12.2h-12.19v-12.2h12.19Zm0,12.2v12.2h-12.19v-12.2h12.19Zm0,12.2v12.19h-12.19v-12.19h12.19Zm0,12.19v12.2h-12.19v-12.2h12.19Zm0,12.2v12.2h-12.19v-12.2h12.19Zm0,12.2v12.2h-12.19v-12.2h12.19Zm0,12.2v12.2h-12.19v-12.2h12.19Zm0,12.2v12.19h-12.19v-12.19h12.19Zm0,12.19v12.2h-12.19v-12.2h12.19Zm0,12.2v12.2h-12.19v-12.2h12.19Zm0,12.2v12.2h-12.19v-12.2h12.19Zm0,12.2v12.2h-12.19v-12.2h12.19Zm0,12.2v12.19h-12.19v-12.19h12.19Zm0,12.19v12.2h-12.19v-12.2h12.19Zm0,12.2v12.2h-12.19v-12.2h12.19Zm0,12.2v12.2h-12.19v-12.2h12.19Zm0,12.2v12.2h-12.19v-12.2h12.19Zm0,12.2v12.19h-12.19v-12.19h12.19Zm0,12.19v12.2h-12.19v-12.2h12.19Zm12.2-280.49v12.2h-12.2v-12.2h12.2Zm0,12.2v12.2h-12.2v-12.2h12.2Zm0,12.2v12.19h-12.2v-12.19h12.2Zm0,12.19v12.2h-12.2v-12.2h12.2Zm0,12.2v12.2h-12.2v-12.2h12.2Zm0,12.2v12.2h-12.2v-12.2h12.2Zm0,12.2v12.2h-12.2v-12.2h12.2Zm0,12.2v12.19h-12.2v-12.19h12.2Zm0,12.19v12.2h-12.2v-12.2h12.2Zm0,12.2v12.2h-12.2v-12.2h12.2Zm0,12.2v12.2h-12.2v-12.2h12.2Zm0,12.2v12.2h-12.2v-12.2h12.2Zm0,12.2v12.19h-12.2v-12.19h12.2Zm0,12.19v12.2h-12.2v-12.2h12.2Zm0,12.2v12.2h-12.2v-12.2h12.2Zm0,12.2v12.2h-12.2v-12.2h12.2Zm0,12.2v12.2h-12.2v-12.2h12.2Zm0,12.2v12.19h-12.2v-12.19h12.2Zm0,12.19v12.2h-12.2v-12.2h12.2Zm0,12.2v12.2h-12.2v-12.2h12.2Zm0,12.2v12.2h-12.2v-12.2h12.2Zm0,12.2v12.2h-12.2v-12.2h12.2Zm0,12.2v12.19h-12.2v-12.19h12.2Zm0,12.19v12.2h-12.2v-12.2h12.2Zm12.2-268.29v12.2h-12.2v-12.2h12.2Zm0,12.2v12.19h-12.2v-12.19h12.2Zm0,12.19v12.2h-12.2v-12.2h12.2Zm0,12.2v12.2h-12.2v-12.2h12.2Zm0,12.2v12.2h-12.2v-12.2h12.2Zm0,12.2v12.2h-12.2v-12.2h12.2Zm0,12.2v12.19h-12.2v-12.19h12.2Zm0,12.19v12.2h-12.2v-12.2h12.2Zm0,12.2v12.2h-12.2v-12.2h12.2Zm0,12.2v12.2h-12.2v-12.2h12.2Zm0,12.2v12.2h-12.2v-12.2h12.2Zm0,12.2v12.19h-12.2v-12.19h12.2Zm0,24.39v12.2h-12.2v-12.2h12.2Zm0,12.2v12.2h-12.2v-12.2h12.2Zm0,12.2v12.2h-12.2v-12.2h12.2Zm0,12.2v12.19h-12.2v-12.19h12.2Zm0,12.19v12.2h-12.2v-12.2h12.2Zm0,12.2v12.2h-12.2v-12.2h12.2Zm0,12.2v12.2h-12.2v-12.2h12.2Zm0,12.2v12.2h-12.2v-12.2h12.2Zm0,12.2v12.19h-12.2v-12.19h12.2Zm0,12.19v12.2h-12.2v-12.2h12.2Zm12.2-243.9v12.2h-12.2v-12.2h12.2Zm0,12.2v12.2h-12.2v-12.2h12.2Zm0,12.2v12.2h-12.2v-12.2h12.2Zm0,12.2v12.2h-12.2v-12.2h12.2Zm0,12.2v12.19h-12.2v-12.19h12.2Zm0,12.19v12.2h-12.2v-12.2h12.2Zm0,12.2v12.2h-12.2v-12.2h12.2Zm0,12.2v12.2h-12.2v-12.2h12.2Zm0,12.2v12.2h-12.2v-12.2h12.2Zm0,48.78v12.2h-12.2v-12.2h12.2Zm0,12.2v12.2h-12.2v-12.2h12.2Zm0,12.2v12.19h-12.2v-12.19h12.2Zm0,12.19v12.2h-12.2v-12.2h12.2Zm0,12.2v12.2h-12.2v-12.2h12.2Zm0,12.2v12.2h-12.2v-12.2h12.2Zm0,12.2v12.2h-12.2v-12.2h12.2Zm0,12.2v12.19h-12.2v-12.19h12.2Zm0,12.19v12.2h-12.2v-12.2h12.2Z" stroke="#fe0159" stroke-miterlimit="10"/><path d="m512.69.5v12.2h-12.2V.5h12.2Zm0,12.2v12.2h-12.2v-12.2h12.2Zm0,12.2v12.2h-12.2v-12.2h12.2Zm0,12.2v12.19h-12.2v-12.19h12.2Zm0,12.19v12.2h-12.2v-12.2h12.2Zm0,12.2v12.2h-12.2v-12.2h12.2Zm0,12.2v12.2h-12.2v-12.2h12.2Zm0,12.2v12.2h-12.2v-12.2h12.2Zm0,12.2v12.19h-12.2v-12.19h12.2Zm0,12.19v12.2h-12.2v-12.2h12.2Zm0,12.2v12.2h-12.2v-12.2h12.2Zm0,12.2v12.2h-12.2v-12.2h12.2Zm0,12.2v12.2h-12.2v-12.2h12.2Zm0,12.2v12.19h-12.2v-12.19h12.2Zm0,12.19v12.2h-12.2v-12.2h12.2Zm0,12.2v12.2h-12.2v-12.2h12.2Zm0,12.2v12.2h-12.2v-12.2h12.2Zm0,12.2v12.2h-12.2v-12.2h12.2Zm0,12.2v12.19h-12.2v-12.19h12.2Zm0,12.19v12.2h-12.2v-12.2h12.2Zm0,12.2v12.2h-12.2v-12.2h12.2Zm0,12.2v12.2h-12.2v-12.2h12.2Zm0,12.2v12.2h-12.2v-12.2h12.2Zm0,12.2v12.19h-12.2v-12.19h12.2Zm0,12.19v12.2h-12.2v-12.2h12.2ZM524.88.5v12.2h-12.19V.5h12.19Zm0,12.2v12.2h-12.19v-12.2h12.19Zm0,12.2v12.2h-12.19v-12.2h12.19Zm0,12.2v12.19h-12.19v-12.19h12.19Zm0,12.19v12.2h-12.19v-12.2h12.19Zm0,12.2v12.2h-12.19v-12.2h12.19Zm0,12.2v12.2h-12.19v-12.2h12.19Zm0,12.2v12.2h-12.19v-12.2h12.19Zm0,12.2v12.19h-12.19v-12.19h12.19Zm0,12.19v12.2h-12.19v-12.2h12.19Zm0,12.2v12.2h-12.19v-12.2h12.19Zm0,12.2v12.2h-12.19v-12.2h12.19Zm0,12.2v12.2h-12.19v-12.2h12.19Zm0,12.2v12.19h-12.19v-12.19h12.19Zm0,12.19v12.2h-12.19v-12.2h12.19Zm0,12.2v12.2h-12.19v-12.2h12.19Zm0,12.2v12.2h-12.19v-12.2h12.19Zm0,12.2v12.2h-12.19v-12.2h12.19Zm0,12.2v12.19h-12.19v-12.19h12.19Zm0,12.19v12.2h-12.19v-12.2h12.19Zm0,12.2v12.2h-12.19v-12.2h12.19Zm0,12.2v12.2h-12.19v-12.2h12.19Zm0,12.2v12.2h-12.19v-12.2h12.19Zm0,12.2v12.19h-12.19v-12.19h12.19Zm0,12.19v12.2h-12.19v-12.2h12.19ZM537.08.5v12.2h-12.2V.5h12.2Zm0,12.2v12.2h-12.2v-12.2h12.2Zm0,12.2v12.2h-12.2v-12.2h12.2Zm0,12.2v12.19h-12.2v-12.19h12.2Zm0,12.19v12.2h-12.2v-12.2h12.2Zm0,12.2v12.2h-12.2v-12.2h12.2Zm0,12.2v12.2h-12.2v-12.2h12.2Zm0,12.2v12.2h-12.2v-12.2h12.2Zm0,12.2v12.19h-12.2v-12.19h12.2Zm0,12.19v12.2h-12.2v-12.2h12.2Zm0,12.2v12.2h-12.2v-12.2h12.2Zm0,12.2v12.2h-12.2v-12.2h12.2Zm0,12.2v12.2h-12.2v-12.2h12.2Zm0,12.2v12.19h-12.2v-12.19h12.2Zm0,12.19v12.2h-12.2v-12.2h12.2Zm0,12.2v12.2h-12.2v-12.2h12.2Zm0,12.2v12.2h-12.2v-12.2h12.2Zm0,12.2v12.2h-12.2v-12.2h12.2Zm0,12.2v12.19h-12.2v-12.19h12.2Zm0,12.19v12.2h-12.2v-12.2h12.2Zm0,12.2v12.2h-12.2v-12.2h12.2Zm0,12.2v12.2h-12.2v-12.2h12.2Zm0,12.2v12.2h-12.2v-12.2h12.2Zm0,12.2v12.19h-12.2v-12.19h12.2Zm0,12.19v12.2h-12.2v-12.2h12.2ZM549.27.5v12.2h-12.2V.5h12.2Zm0,12.2v12.2h-12.2v-12.2h12.2Zm0,12.2v12.2h-12.2v-12.2h12.2Zm0,12.2v12.19h-12.2v-12.19h12.2Zm0,12.19v12.2h-12.2v-12.2h12.2Zm0,12.2v12.2h-12.2v-12.2h12.2Zm0,12.2v12.2h-12.2v-12.2h12.2Zm0,12.2v12.2h-12.2v-12.2h12.2Zm0,12.2v12.19h-12.2v-12.19h12.2Zm0,12.19v12.2h-12.2v-12.2h12.2Zm0,12.2v12.2h-12.2v-12.2h12.2Zm0,12.2v12.2h-12.2v-12.2h12.2Zm0,12.2v12.2h-12.2v-12.2h12.2Zm0,12.2v12.19h-12.2v-12.19h12.2Zm0,12.19v12.2h-12.2v-12.2h12.2Zm0,12.2v12.2h-12.2v-12.2h12.2Zm0,12.2v12.2h-12.2v-12.2h12.2Zm0,12.2v12.2h-12.2v-12.2h12.2Zm0,12.2v12.19h-12.2v-12.19h12.2Zm0,12.19v12.2h-12.2v-12.2h12.2Zm0,12.2v12.2h-12.2v-12.2h12.2Zm0,12.2v12.2h-12.2v-12.2h12.2Zm0,12.2v12.2h-12.2v-12.2h12.2Zm0,12.2v12.19h-12.2v-12.19h12.2Zm0,12.19v12.2h-12.2v-12.2h12.2ZM561.47.5v12.2h-12.2V.5h12.2Zm0,12.2v12.2h-12.2v-12.2h12.2Zm0,12.2v12.2h-12.2v-12.2h12.2Zm0,12.2v12.19h-12.2v-12.19h12.2Zm0,12.19v12.2h-12.2v-12.2h12.2Zm0,12.2v12.2h-12.2v-12.2h12.2Zm0,12.2v12.2h-12.2v-12.2h12.2Zm0,12.2v12.2h-12.2v-12.2h12.2Zm0,12.2v12.19h-12.2v-12.19h12.2Zm0,12.19v12.2h-12.2v-12.2h12.2Zm0,12.2v12.2h-12.2v-12.2h12.2Zm0,12.2v12.2h-12.2v-12.2h12.2Zm0,12.2v12.2h-12.2v-12.2h12.2Zm0,12.2v12.19h-12.2v-12.19h12.2Zm0,12.19v12.2h-12.2v-12.2h12.2Zm0,12.2v12.2h-12.2v-12.2h12.2Zm0,12.2v12.2h-12.2v-12.2h12.2Zm0,12.2v12.2h-12.2v-12.2h12.2Zm0,12.2v12.19h-12.2v-12.19h12.2Zm0,12.19v12.2h-12.2v-12.2h12.2Zm0,12.2v12.2h-12.2v-12.2h12.2Zm0,12.2v12.2h-12.2v-12.2h12.2Zm0,12.2v12.2h-12.2v-12.2h12.2Zm0,12.2v12.19h-12.2v-12.19h12.2Zm0,12.19v12.2h-12.2v-12.2h12.2ZM573.66.5v12.2h-12.2V.5h12.2Zm0,12.2v12.2h-12.2v-12.2h12.2Zm0,12.2v12.2h-12.2v-12.2h12.2Zm0,12.2v12.19h-12.2v-12.19h12.2Zm0,12.19v12.2h-12.2v-12.2h12.2Zm0,73.17v12.2h-12.2v-12.2h12.2Zm0,12.2v12.2h-12.2v-12.2h12.2Zm0,12.2v12.2h-12.2v-12.2h12.2Zm0,12.2v12.19h-12.2v-12.19h12.2Zm0,12.19v12.2h-12.2v-12.2h12.2Zm0,73.17v12.2h-12.2v-12.2h12.2Zm0,12.2v12.2h-12.2v-12.2h12.2Zm0,12.2v12.2h-12.2v-12.2h12.2Zm0,12.2v12.19h-12.2v-12.19h12.2Zm0,12.19v12.2h-12.2v-12.2h12.2ZM585.86.5v12.2h-12.19V.5h12.19Zm0,12.2v12.2h-12.19v-12.2h12.19Zm0,12.2v12.2h-12.19v-12.2h12.19Zm0,12.2v12.19h-12.19v-12.19h12.19Zm0,12.19v12.2h-12.19v-12.2h12.19Zm0,73.17v12.2h-12.19v-12.2h12.19Zm0,12.2v12.2h-12.19v-12.2h12.19Zm0,12.2v12.2h-12.19v-12.2h12.19Zm0,12.2v12.19h-12.19v-12.19h12.19Zm0,12.19v12.2h-12.19v-12.2h12.19Zm0,73.17v12.2h-12.19v-12.2h12.19Zm0,12.2v12.2h-12.19v-12.2h12.19Zm0,12.2v12.2h-12.19v-12.2h12.19Zm0,12.2v12.19h-12.19v-12.19h12.19Zm0,12.19v12.2h-12.19v-12.2h12.19ZM598.05.5v12.2h-12.2V.5h12.2Zm0,12.2v12.2h-12.2v-12.2h12.2Zm0,12.2v12.2h-12.2v-12.2h12.2Zm0,12.2v12.19h-12.2v-12.19h12.2Zm0,12.19v12.2h-12.2v-12.2h12.2Zm0,73.17v12.2h-12.2v-12.2h12.2Zm0,12.2v12.2h-12.2v-12.2h12.2Zm0,12.2v12.2h-12.2v-12.2h12.2Zm0,12.2v12.19h-12.2v-12.19h12.2Zm0,12.19v12.2h-12.2v-12.2h12.2Zm0,73.17v12.2h-12.2v-12.2h12.2Zm0,12.2v12.2h-12.2v-12.2h12.2Zm0,12.2v12.2h-12.2v-12.2h12.2Zm0,12.2v12.19h-12.2v-12.19h12.2Zm0,12.19v12.2h-12.2v-12.2h12.2ZM610.25.5v12.2h-12.2V.5h12.2Zm0,12.2v12.2h-12.2v-12.2h12.2Zm0,12.2v12.2h-12.2v-12.2h12.2Zm0,12.2v12.19h-12.2v-12.19h12.2Zm0,12.19v12.2h-12.2v-12.2h12.2Zm0,73.17v12.2h-12.2v-12.2h12.2Zm0,12.2v12.2h-12.2v-12.2h12.2Zm0,12.2v12.2h-12.2v-12.2h12.2Zm0,12.2v12.19h-12.2v-12.19h12.2Zm0,12.19v12.2h-12.2v-12.2h12.2Zm0,73.17v12.2h-12.2v-12.2h12.2Zm0,12.2v12.2h-12.2v-12.2h12.2Zm0,12.2v12.2h-12.2v-12.2h12.2Zm0,12.2v12.19h-12.2v-12.19h12.2Zm0,12.19v12.2h-12.2v-12.2h12.2ZM622.44.5v12.2h-12.2V.5h12.2Zm0,12.2v12.2h-12.2v-12.2h12.2Zm0,12.2v12.2h-12.2v-12.2h12.2Zm0,12.2v12.19h-12.2v-12.19h12.2Zm0,12.19v12.2h-12.2v-12.2h12.2Zm0,73.17v12.2h-12.2v-12.2h12.2Zm0,12.2v12.2h-12.2v-12.2h12.2Zm0,12.2v12.2h-12.2v-12.2h12.2Zm0,12.2v12.19h-12.2v-12.19h12.2Zm0,12.19v12.2h-12.2v-12.2h12.2Zm0,73.17v12.2h-12.2v-12.2h12.2Zm0,12.2v12.2h-12.2v-12.2h12.2Zm0,12.2v12.2h-12.2v-12.2h12.2Zm0,12.2v12.19h-12.2v-12.19h12.2Zm0,12.19v12.2h-12.2v-12.2h12.2ZM634.64.5v12.2h-12.2V.5h12.2Zm0,12.2v12.2h-12.2v-12.2h12.2Zm0,12.2v12.2h-12.2v-12.2h12.2Zm0,12.2v12.19h-12.2v-12.19h12.2Zm0,12.19v12.2h-12.2v-12.2h12.2Zm0,73.17v12.2h-12.2v-12.2h12.2Zm0,12.2v12.2h-12.2v-12.2h12.2Zm0,12.2v12.2h-12.2v-12.2h12.2Zm0,12.2v12.19h-12.2v-12.19h12.2Zm0,12.19v12.2h-12.2v-12.2h12.2Zm0,73.17v12.2h-12.2v-12.2h12.2Zm0,12.2v12.2h-12.2v-12.2h12.2Zm0,12.2v12.2h-12.2v-12.2h12.2Zm0,12.2v12.19h-12.2v-12.19h12.2Zm0,12.19v12.2h-12.2v-12.2h12.2ZM646.83.5v12.2h-12.2V.5h12.2Zm0,12.2v12.2h-12.2v-12.2h12.2Zm0,12.2v12.2h-12.2v-12.2h12.2Zm0,12.2v12.19h-12.2v-12.19h12.2Zm0,12.19v12.2h-12.2v-12.2h12.2Zm0,73.17v12.2h-12.2v-12.2h12.2Zm0,12.2v12.2h-12.2v-12.2h12.2Zm0,12.2v12.2h-12.2v-12.2h12.2Zm0,12.2v12.19h-12.2v-12.19h12.2Zm0,12.19v12.2h-12.2v-12.2h12.2Zm0,73.17v12.2h-12.2v-12.2h12.2Zm0,12.2v12.2h-12.2v-12.2h12.2Zm0,12.2v12.2h-12.2v-12.2h12.2Zm0,12.2v12.19h-12.2v-12.19h12.2Zm0,12.19v12.2h-12.2v-12.2h12.2ZM659.03.5v12.2h-12.19V.5h12.19Zm0,12.2v12.2h-12.19v-12.2h12.19Zm0,12.2v12.2h-12.19v-12.2h12.19Zm0,12.2v12.19h-12.19v-12.19h12.19Zm0,12.19v12.2h-12.19v-12.2h12.19Zm0,73.17v12.2h-12.19v-12.2h12.19Zm0,12.2v12.2h-12.19v-12.2h12.19Zm0,12.2v12.2h-12.19v-12.2h12.19Zm0,12.2v12.19h-12.19v-12.19h12.19Zm0,12.19v12.2h-12.19v-12.2h12.19Zm0,73.17v12.2h-12.19v-12.2h12.19Zm0,12.2v12.2h-12.19v-12.2h12.19Zm0,12.2v12.2h-12.19v-12.2h12.19Zm0,12.2v12.19h-12.19v-12.19h12.19Zm0,12.19v12.2h-12.19v-12.2h12.19ZM671.22.5v12.2h-12.2V.5h12.2Zm0,12.2v12.2h-12.2v-12.2h12.2Zm0,12.2v12.2h-12.2v-12.2h12.2Zm0,12.2v12.19h-12.2v-12.19h12.2Zm0,12.19v12.2h-12.2v-12.2h12.2Zm0,73.17v12.2h-12.2v-12.2h12.2Zm0,12.2v12.2h-12.2v-12.2h12.2Zm0,12.2v12.2h-12.2v-12.2h12.2Zm0,12.2v12.19h-12.2v-12.19h12.2Zm0,12.19v12.2h-12.2v-12.2h12.2Zm0,73.17v12.2h-12.2v-12.2h12.2Zm0,12.2v12.2h-12.2v-12.2h12.2Zm0,12.2v12.2h-12.2v-12.2h12.2Zm0,12.2v12.19h-12.2v-12.19h12.2Zm0,12.19v12.2h-12.2v-12.2h12.2ZM683.42.5v12.2h-12.2V.5h12.2Zm0,12.2v12.2h-12.2v-12.2h12.2Zm0,12.2v12.2h-12.2v-12.2h12.2Zm0,12.2v12.19h-12.2v-12.19h12.2Zm0,12.19v12.2h-12.2v-12.2h12.2Zm0,195.12v12.2h-12.2v-12.2h12.2Zm0,12.2v12.2h-12.2v-12.2h12.2Zm0,12.2v12.2h-12.2v-12.2h12.2Zm0,12.2v12.19h-12.2v-12.19h12.2Zm0,12.19v12.2h-12.2v-12.2h12.2ZM695.61.5v12.2h-12.2V.5h12.2Zm0,12.2v12.2h-12.2v-12.2h12.2Zm0,12.2v12.2h-12.2v-12.2h12.2Zm0,12.2v12.19h-12.2v-12.19h12.2Zm0,12.19v12.2h-12.2v-12.2h12.2Zm0,195.12v12.2h-12.2v-12.2h12.2Zm0,12.2v12.2h-12.2v-12.2h12.2Zm0,12.2v12.2h-12.2v-12.2h12.2Zm0,12.2v12.19h-12.2v-12.19h12.2Zm0,12.19v12.2h-12.2v-12.2h12.2Z" stroke="#fe0159" stroke-miterlimit="10"/><path d="m756.58.5v12.2h-12.19V.5h12.19Zm0,12.2v12.2h-12.19v-12.2h12.19Zm0,12.2v12.2h-12.19v-12.2h12.19Zm0,12.2v12.19h-12.19v-12.19h12.19Zm0,12.19v12.2h-12.19v-12.2h12.19Zm0,12.2v12.2h-12.19v-12.2h12.19Zm0,12.2v12.2h-12.19v-12.2h12.19Zm0,12.2v12.2h-12.19v-12.2h12.19Zm0,12.2v12.19h-12.19v-12.19h12.19Zm0,12.19v12.2h-12.19v-12.2h12.19Zm0,12.2v12.2h-12.19v-12.2h12.19Zm0,12.2v12.2h-12.19v-12.2h12.19Zm0,12.2v12.2h-12.19v-12.2h12.19Zm0,12.2v12.19h-12.19v-12.19h12.19Zm0,12.19v12.2h-12.19v-12.2h12.19Zm0,12.2v12.2h-12.19v-12.2h12.19Zm0,12.2v12.2h-12.19v-12.2h12.19Zm0,12.2v12.2h-12.19v-12.2h12.19Zm0,12.2v12.19h-12.19v-12.19h12.19Zm0,12.19v12.2h-12.19v-12.2h12.19Zm0,12.2v12.2h-12.19v-12.2h12.19Zm0,12.2v12.2h-12.19v-12.2h12.19Zm0,12.2v12.2h-12.19v-12.2h12.19Zm0,12.2v12.19h-12.19v-12.19h12.19Zm0,12.19v12.2h-12.19v-12.2h12.19ZM768.78.5v12.2h-12.2V.5h12.2Zm0,12.2v12.2h-12.2v-12.2h12.2Zm0,12.2v12.2h-12.2v-12.2h12.2Zm0,12.2v12.19h-12.2v-12.19h12.2Zm0,12.19v12.2h-12.2v-12.2h12.2Zm0,12.2v12.2h-12.2v-12.2h12.2Zm0,12.2v12.2h-12.2v-12.2h12.2Zm0,12.2v12.2h-12.2v-12.2h12.2Zm0,12.2v12.19h-12.2v-12.19h12.2Zm0,12.19v12.2h-12.2v-12.2h12.2Zm0,12.2v12.2h-12.2v-12.2h12.2Zm0,12.2v12.2h-12.2v-12.2h12.2Zm0,12.2v12.2h-12.2v-12.2h12.2Zm0,12.2v12.19h-12.2v-12.19h12.2Zm0,12.19v12.2h-12.2v-12.2h12.2Zm0,12.2v12.2h-12.2v-12.2h12.2Zm0,12.2v12.2h-12.2v-12.2h12.2Zm0,12.2v12.2h-12.2v-12.2h12.2Zm0,12.2v12.19h-12.2v-12.19h12.2Zm0,12.19v12.2h-12.2v-12.2h12.2Zm0,12.2v12.2h-12.2v-12.2h12.2Zm0,12.2v12.2h-12.2v-12.2h12.2Zm0,12.2v12.2h-12.2v-12.2h12.2Zm0,12.2v12.19h-12.2v-12.19h12.2Zm0,12.19v12.2h-12.2v-12.2h12.2ZM780.97.5v12.2h-12.2V.5h12.2Zm0,12.2v12.2h-12.2v-12.2h12.2Zm0,12.2v12.2h-12.2v-12.2h12.2Zm0,12.2v12.19h-12.2v-12.19h12.2Zm0,12.19v12.2h-12.2v-12.2h12.2Zm0,12.2v12.2h-12.2v-12.2h12.2Zm0,12.2v12.2h-12.2v-12.2h12.2Zm0,12.2v12.2h-12.2v-12.2h12.2Zm0,12.2v12.19h-12.2v-12.19h12.2Zm0,12.19v12.2h-12.2v-12.2h12.2Zm0,12.2v12.2h-12.2v-12.2h12.2Zm0,12.2v12.2h-12.2v-12.2h12.2Zm0,12.2v12.2h-12.2v-12.2h12.2Zm0,12.2v12.19h-12.2v-12.19h12.2Zm0,12.19v12.2h-12.2v-12.2h12.2Zm0,12.2v12.2h-12.2v-12.2h12.2Zm0,12.2v12.2h-12.2v-12.2h12.2Zm0,12.2v12.2h-12.2v-12.2h12.2Zm0,12.2v12.19h-12.2v-12.19h12.2Zm0,12.19v12.2h-12.2v-12.2h12.2Zm0,12.2v12.2h-12.2v-12.2h12.2Zm0,12.2v12.2h-12.2v-12.2h12.2Zm0,12.2v12.2h-12.2v-12.2h12.2Zm0,12.2v12.19h-12.2v-12.19h12.2Zm0,12.19v12.2h-12.2v-12.2h12.2ZM793.17.5v12.2h-12.2V.5h12.2Zm0,12.2v12.2h-12.2v-12.2h12.2Zm0,12.2v12.2h-12.2v-12.2h12.2Zm0,12.2v12.19h-12.2v-12.19h12.2Zm0,12.19v12.2h-12.2v-12.2h12.2Zm0,12.2v12.2h-12.2v-12.2h12.2Zm0,12.2v12.2h-12.2v-12.2h12.2Zm0,12.2v12.2h-12.2v-12.2h12.2Zm0,12.2v12.19h-12.2v-12.19h12.2Zm0,12.19v12.2h-12.2v-12.2h12.2Zm0,12.2v12.2h-12.2v-12.2h12.2Zm0,12.2v12.2h-12.2v-12.2h12.2Zm0,12.2v12.2h-12.2v-12.2h12.2Zm0,12.2v12.19h-12.2v-12.19h12.2Zm0,12.19v12.2h-12.2v-12.2h12.2Zm0,12.2v12.2h-12.2v-12.2h12.2Zm0,12.2v12.2h-12.2v-12.2h12.2Zm0,12.2v12.2h-12.2v-12.2h12.2Zm0,12.2v12.19h-12.2v-12.19h12.2Zm0,12.19v12.2h-12.2v-12.2h12.2Zm0,12.2v12.2h-12.2v-12.2h12.2Zm0,12.2v12.2h-12.2v-12.2h12.2Zm0,12.2v12.2h-12.2v-12.2h12.2Zm0,12.2v12.19h-12.2v-12.19h12.2Zm0,12.19v12.2h-12.2v-12.2h12.2ZM805.37.5v12.2h-12.2V.5h12.2Zm0,12.2v12.2h-12.2v-12.2h12.2Zm0,12.2v12.2h-12.2v-12.2h12.2Zm0,12.2v12.19h-12.2v-12.19h12.2Zm0,12.19v12.2h-12.2v-12.2h12.2Zm0,12.2v12.2h-12.2v-12.2h12.2Zm0,12.2v12.2h-12.2v-12.2h12.2Zm0,12.2v12.2h-12.2v-12.2h12.2Zm0,12.2v12.19h-12.2v-12.19h12.2Zm0,12.19v12.2h-12.2v-12.2h12.2Zm0,12.2v12.2h-12.2v-12.2h12.2Zm0,12.2v12.2h-12.2v-12.2h12.2Zm0,12.2v12.2h-12.2v-12.2h12.2Zm0,12.2v12.19h-12.2v-12.19h12.2Zm0,12.19v12.2h-12.2v-12.2h12.2Zm0,12.2v12.2h-12.2v-12.2h12.2Zm0,12.2v12.2h-12.2v-12.2h12.2Zm0,12.2v12.2h-12.2v-12.2h12.2Zm0,12.2v12.19h-12.2v-12.19h12.2Zm0,12.19v12.2h-12.2v-12.2h12.2Zm0,12.2v12.2h-12.2v-12.2h12.2Zm0,12.2v12.2h-12.2v-12.2h12.2Zm0,12.2v12.2h-12.2v-12.2h12.2Zm0,12.2v12.19h-12.2v-12.19h12.2Zm0,12.19v12.2h-12.2v-12.2h12.2ZM817.56.5v12.2h-12.19V.5h12.19Zm0,12.2v12.2h-12.19v-12.2h12.19Zm0,12.2v12.2h-12.19v-12.2h12.19Zm0,12.2v12.19h-12.19v-12.19h12.19Zm0,12.19v12.2h-12.19v-12.2h12.19Zm0,97.56v12.2h-12.19v-12.2h12.19Zm0,12.2v12.19h-12.19v-12.19h12.19Zm0,12.19v12.2h-12.19v-12.2h12.19Zm0,12.2v12.2h-12.19v-12.2h12.19Zm0,12.2v12.2h-12.19v-12.2h12.19ZM829.75.5v12.2h-12.2V.5h12.2Zm0,12.2v12.2h-12.2v-12.2h12.2Zm0,12.2v12.2h-12.2v-12.2h12.2Zm0,12.2v12.19h-12.2v-12.19h12.2Zm0,12.19v12.2h-12.2v-12.2h12.2Zm0,97.56v12.2h-12.2v-12.2h12.2Zm0,12.2v12.19h-12.2v-12.19h12.2Zm0,12.19v12.2h-12.2v-12.2h12.2Zm0,12.2v12.2h-12.2v-12.2h12.2Zm0,12.2v12.2h-12.2v-12.2h12.2ZM841.95.5v12.2h-12.2V.5h12.2Zm0,12.2v12.2h-12.2v-12.2h12.2Zm0,12.2v12.2h-12.2v-12.2h12.2Zm0,12.2v12.19h-12.2v-12.19h12.2Zm0,12.19v12.2h-12.2v-12.2h12.2Zm0,97.56v12.2h-12.2v-12.2h12.2Zm0,12.2v12.19h-12.2v-12.19h12.2Zm0,12.19v12.2h-12.2v-12.2h12.2Zm0,12.2v12.2h-12.2v-12.2h12.2Zm0,12.2v12.2h-12.2v-12.2h12.2ZM854.15.5v12.2h-12.2V.5h12.2Zm0,12.2v12.2h-12.2v-12.2h12.2Zm0,12.2v12.2h-12.2v-12.2h12.2Zm0,12.2v12.19h-12.2v-12.19h12.2Zm0,12.19v12.2h-12.2v-12.2h12.2Zm0,97.56v12.2h-12.2v-12.2h12.2Zm0,12.2v12.19h-12.2v-12.19h12.2Zm0,12.19v12.2h-12.2v-12.2h12.2Zm0,12.2v12.2h-12.2v-12.2h12.2Zm0,12.2v12.2h-12.2v-12.2h12.2ZM866.34.5v12.2h-12.2V.5h12.2Zm0,12.2v12.2h-12.2v-12.2h12.2Zm0,12.2v12.2h-12.2v-12.2h12.2Zm0,12.2v12.19h-12.2v-12.19h12.2Zm0,12.19v12.2h-12.2v-12.2h12.2Zm0,97.56v12.2h-12.2v-12.2h12.2Zm0,12.2v12.19h-12.2v-12.19h12.2Zm0,12.19v12.2h-12.2v-12.2h12.2Zm0,12.2v12.2h-12.2v-12.2h12.2Zm0,12.2v12.2h-12.2v-12.2h12.2ZM878.54.5v12.2h-12.19V.5h12.19Zm0,12.2v12.2h-12.19v-12.2h12.19Zm0,12.2v12.2h-12.19v-12.2h12.19Zm0,12.2v12.19h-12.19v-12.19h12.19Zm0,12.19v12.2h-12.19v-12.2h12.19Zm0,12.2v12.2h-12.19v-12.2h12.19Zm0,73.17v12.2h-12.19v-12.2h12.19Zm0,12.2v12.2h-12.19v-12.2h12.19Zm0,12.2v12.19h-12.19v-12.19h12.19Zm0,12.19v12.2h-12.19v-12.2h12.19Zm0,12.2v12.2h-12.19v-12.2h12.19Zm0,12.2v12.2h-12.19v-12.2h12.19ZM890.73.5v12.2h-12.2V.5h12.2Zm0,12.2v12.2h-12.2v-12.2h12.2Zm0,12.2v12.2h-12.2v-12.2h12.2Zm0,12.2v12.19h-12.2v-12.19h12.2Zm0,12.19v12.2h-12.2v-12.2h12.2Zm0,12.2v12.2h-12.2v-12.2h12.2Zm0,12.2v12.2h-12.2v-12.2h12.2Zm0,12.2v12.2h-12.2v-12.2h12.2Zm0,12.2v12.19h-12.2v-12.19h12.2Zm0,12.19v12.2h-12.2v-12.2h12.2Zm0,12.2v12.2h-12.2v-12.2h12.2Zm0,12.2v12.2h-12.2v-12.2h12.2Zm0,12.2v12.2h-12.2v-12.2h12.2Zm0,12.2v12.19h-12.2v-12.19h12.2Zm0,12.19v12.2h-12.2v-12.2h12.2Zm0,12.2v12.2h-12.2v-12.2h12.2Zm0,12.2v12.2h-12.2v-12.2h12.2Zm12.2-182.93v12.2h-12.2v-12.2h12.2Zm0,12.2v12.2h-12.2v-12.2h12.2Zm0,12.2v12.19h-12.2v-12.19h12.2Zm0,12.19v12.2h-12.2v-12.2h12.2Zm0,12.2v12.2h-12.2v-12.2h12.2Zm0,12.2v12.2h-12.2v-12.2h12.2Zm0,12.2v12.2h-12.2v-12.2h12.2Zm0,12.2v12.19h-12.2v-12.19h12.2Zm0,12.19v12.2h-12.2v-12.2h12.2Zm0,12.2v12.2h-12.2v-12.2h12.2Zm0,12.2v12.2h-12.2v-12.2h12.2Zm0,12.2v12.2h-12.2v-12.2h12.2Zm0,12.2v12.19h-12.2v-12.19h12.2Zm0,12.19v12.2h-12.2v-12.2h12.2Zm0,12.2v12.2h-12.2v-12.2h12.2Zm0,12.2v12.2h-12.2v-12.2h12.2Zm12.2-182.93v12.2h-12.2v-12.2h12.2Zm0,12.2v12.2h-12.2v-12.2h12.2Zm0,12.2v12.19h-12.2v-12.19h12.2Zm0,12.19v12.2h-12.2v-12.2h12.2Zm0,12.2v12.2h-12.2v-12.2h12.2Zm0,12.2v12.2h-12.2v-12.2h12.2Zm0,12.2v12.2h-12.2v-12.2h12.2Zm0,12.2v12.19h-12.2v-12.19h12.2Zm0,12.19v12.2h-12.2v-12.2h12.2Zm0,12.2v12.2h-12.2v-12.2h12.2Zm0,12.2v12.2h-12.2v-12.2h12.2Zm0,12.2v12.2h-12.2v-12.2h12.2Zm0,12.2v12.19h-12.2v-12.19h12.2Zm0,12.19v12.2h-12.2v-12.2h12.2Zm0,12.2v12.2h-12.2v-12.2h12.2Zm12.2-158.54v12.2h-12.2v-12.2h12.2Zm0,12.2v12.19h-12.2v-12.19h12.2Zm0,12.19v12.2h-12.2v-12.2h12.2Zm0,12.2v12.2h-12.2v-12.2h12.2Zm0,12.2v12.2h-12.2v-12.2h12.2Zm0,12.2v12.2h-12.2v-12.2h12.2Zm0,12.2v12.19h-12.2v-12.19h12.2Zm0,12.19v12.2h-12.2v-12.2h12.2Zm0,12.2v12.2h-12.2v-12.2h12.2Zm0,12.2v12.2h-12.2v-12.2h12.2Zm0,12.2v12.2h-12.2v-12.2h12.2Zm0,12.2v12.19h-12.2v-12.19h12.2Zm12.19-109.76v12.2h-12.19v-12.2h12.19Zm0,12.2v12.2h-12.19v-12.2h12.19Zm0,12.2v12.2h-12.19v-12.2h12.19Zm0,12.2v12.2h-12.19v-12.2h12.19Zm0,12.2v12.19h-12.19v-12.19h12.19Zm0,12.19v12.2h-12.19v-12.2h12.19Zm0,12.2v12.2h-12.19v-12.2h12.19Zm0,12.2v12.2h-12.19v-12.2h12.19Zm0,12.2v12.2h-12.19v-12.2h12.19Z" stroke="#fe0159" stroke-miterlimit="10"/><path d="m1000.48.5v12.2h-12.19V.5h12.19Zm0,12.2v12.2h-12.19v-12.2h12.19Zm0,12.2v12.2h-12.19v-12.2h12.19Zm0,12.2v12.19h-12.19v-12.19h12.19Zm0,12.19v12.2h-12.19v-12.2h12.19Zm12.2-48.78v12.2h-12.2V.5h12.2Zm0,12.2v12.2h-12.2v-12.2h12.2Zm0,12.2v12.2h-12.2v-12.2h12.2Zm0,12.2v12.19h-12.2v-12.19h12.2Zm0,12.19v12.2h-12.2v-12.2h12.2Zm12.2-48.78v12.2h-12.2V.5h12.2Zm0,12.2v12.2h-12.2v-12.2h12.2Zm0,12.2v12.2h-12.2v-12.2h12.2Zm0,12.2v12.19h-12.2v-12.19h12.2Zm0,12.19v12.2h-12.2v-12.2h12.2Zm12.2-48.78v12.2h-12.2V.5h12.2Zm0,12.2v12.2h-12.2v-12.2h12.2Zm0,12.2v12.2h-12.2v-12.2h12.2Zm0,12.2v12.19h-12.2v-12.19h12.2Zm0,12.19v12.2h-12.2v-12.2h12.2Zm12.2-48.78v12.2h-12.2V.5h12.2Zm0,12.2v12.2h-12.2v-12.2h12.2Zm0,12.2v12.2h-12.2v-12.2h12.2Zm0,12.2v12.19h-12.2v-12.19h12.2Zm0,12.19v12.2h-12.2v-12.2h12.2Zm12.19-48.78v12.2h-12.19V.5h12.19Zm0,12.2v12.2h-12.19v-12.2h12.19Zm0,12.2v12.2h-12.19v-12.2h12.19Zm0,12.2v12.19h-12.19v-12.19h12.19Zm0,12.19v12.2h-12.19v-12.2h12.19Zm0,12.2v12.2h-12.19v-12.2h12.19Zm0,12.2v12.2h-12.19v-12.2h12.19Zm0,12.2v12.2h-12.19v-12.2h12.19Zm0,12.2v12.19h-12.19v-12.19h12.19Zm0,12.19v12.2h-12.19v-12.2h12.19Zm0,12.2v12.2h-12.19v-12.2h12.19Zm0,12.2v12.2h-12.19v-12.2h12.19Zm0,12.2v12.2h-12.19v-12.2h12.19Zm0,12.2v12.19h-12.19v-12.19h12.19Zm0,12.19v12.2h-12.19v-12.2h12.19Zm0,12.2v12.2h-12.19v-12.2h12.19Zm0,12.2v12.2h-12.19v-12.2h12.19Zm0,12.2v12.2h-12.19v-12.2h12.19Zm0,12.2v12.19h-12.19v-12.19h12.19Zm0,12.19v12.2h-12.19v-12.2h12.19Zm0,12.2v12.2h-12.19v-12.2h12.19Zm0,12.2v12.2h-12.19v-12.2h12.19Zm0,12.2v12.2h-12.19v-12.2h12.19Zm0,12.2v12.19h-12.19v-12.19h12.19Zm0,12.19v12.2h-12.19v-12.2h12.19ZM1073.65.5v12.2h-12.2V.5h12.2Zm0,12.2v12.2h-12.2v-12.2h12.2Zm0,12.2v12.2h-12.2v-12.2h12.2Zm0,12.2v12.19h-12.2v-12.19h12.2Zm0,12.19v12.2h-12.2v-12.2h12.2Zm0,12.2v12.2h-12.2v-12.2h12.2Zm0,12.2v12.2h-12.2v-12.2h12.2Zm0,12.2v12.2h-12.2v-12.2h12.2Zm0,12.2v12.19h-12.2v-12.19h12.2Zm0,12.19v12.2h-12.2v-12.2h12.2Zm0,12.2v12.2h-12.2v-12.2h12.2Zm0,12.2v12.2h-12.2v-12.2h12.2Zm0,12.2v12.2h-12.2v-12.2h12.2Zm0,12.2v12.19h-12.2v-12.19h12.2Zm0,12.19v12.2h-12.2v-12.2h12.2Zm0,12.2v12.2h-12.2v-12.2h12.2Zm0,12.2v12.2h-12.2v-12.2h12.2Zm0,12.2v12.2h-12.2v-12.2h12.2Zm0,12.2v12.19h-12.2v-12.19h12.2Zm0,12.19v12.2h-12.2v-12.2h12.2Zm0,12.2v12.2h-12.2v-12.2h12.2Zm0,12.2v12.2h-12.2v-12.2h12.2Zm0,12.2v12.2h-12.2v-12.2h12.2Zm0,12.2v12.19h-12.2v-12.19h12.2Zm0,12.19v12.2h-12.2v-12.2h12.2ZM1085.85.5v12.2h-12.2V.5h12.2Zm0,12.2v12.2h-12.2v-12.2h12.2Zm0,12.2v12.2h-12.2v-12.2h12.2Zm0,12.2v12.19h-12.2v-12.19h12.2Zm0,12.19v12.2h-12.2v-12.2h12.2Zm0,12.2v12.2h-12.2v-12.2h12.2Zm0,12.2v12.2h-12.2v-12.2h12.2Zm0,12.2v12.2h-12.2v-12.2h12.2Zm0,12.2v12.19h-12.2v-12.19h12.2Zm0,12.19v12.2h-12.2v-12.2h12.2Zm0,12.2v12.2h-12.2v-12.2h12.2Zm0,12.2v12.2h-12.2v-12.2h12.2Zm0,12.2v12.2h-12.2v-12.2h12.2Zm0,12.2v12.19h-12.2v-12.19h12.2Zm0,12.19v12.2h-12.2v-12.2h12.2Zm0,12.2v12.2h-12.2v-12.2h12.2Zm0,12.2v12.2h-12.2v-12.2h12.2Zm0,12.2v12.2h-12.2v-12.2h12.2Zm0,12.2v12.19h-12.2v-12.19h12.2Zm0,12.19v12.2h-12.2v-12.2h12.2Zm0,12.2v12.2h-12.2v-12.2h12.2Zm0,12.2v12.2h-12.2v-12.2h12.2Zm0,12.2v12.2h-12.2v-12.2h12.2Zm0,12.2v12.19h-12.2v-12.19h12.2Zm0,12.19v12.2h-12.2v-12.2h12.2ZM1098.04.5v12.2h-12.2V.5h12.2Zm0,12.2v12.2h-12.2v-12.2h12.2Zm0,12.2v12.2h-12.2v-12.2h12.2Zm0,12.2v12.19h-12.2v-12.19h12.2Zm0,12.19v12.2h-12.2v-12.2h12.2Zm0,12.2v12.2h-12.2v-12.2h12.2Zm0,12.2v12.2h-12.2v-12.2h12.2Zm0,12.2v12.2h-12.2v-12.2h12.2Zm0,12.2v12.19h-12.2v-12.19h12.2Zm0,12.19v12.2h-12.2v-12.2h12.2Zm0,12.2v12.2h-12.2v-12.2h12.2Zm0,12.2v12.2h-12.2v-12.2h12.2Zm0,12.2v12.2h-12.2v-12.2h12.2Zm0,12.2v12.19h-12.2v-12.19h12.2Zm0,12.19v12.2h-12.2v-12.2h12.2Zm0,12.2v12.2h-12.2v-12.2h12.2Zm0,12.2v12.2h-12.2v-12.2h12.2Zm0,12.2v12.2h-12.2v-12.2h12.2Zm0,12.2v12.19h-12.2v-12.19h12.2Zm0,12.19v12.2h-12.2v-12.2h12.2Zm0,12.2v12.2h-12.2v-12.2h12.2Zm0,12.2v12.2h-12.2v-12.2h12.2Zm0,12.2v12.2h-12.2v-12.2h12.2Zm0,12.2v12.19h-12.2v-12.19h12.2Zm0,12.19v12.2h-12.2v-12.2h12.2ZM1110.24.5v12.2h-12.2V.5h12.2Zm0,12.2v12.2h-12.2v-12.2h12.2Zm0,12.2v12.2h-12.2v-12.2h12.2Zm0,12.2v12.19h-12.2v-12.19h12.2Zm0,12.19v12.2h-12.2v-12.2h12.2Zm0,12.2v12.2h-12.2v-12.2h12.2Zm0,12.2v12.2h-12.2v-12.2h12.2Zm0,12.2v12.2h-12.2v-12.2h12.2Zm0,12.2v12.19h-12.2v-12.19h12.2Zm0,12.19v12.2h-12.2v-12.2h12.2Zm0,12.2v12.2h-12.2v-12.2h12.2Zm0,12.2v12.2h-12.2v-12.2h12.2Zm0,12.2v12.2h-12.2v-12.2h12.2Zm0,12.2v12.19h-12.2v-12.19h12.2Zm0,12.19v12.2h-12.2v-12.2h12.2Zm0,12.2v12.2h-12.2v-12.2h12.2Zm0,12.2v12.2h-12.2v-12.2h12.2Zm0,12.2v12.2h-12.2v-12.2h12.2Zm0,12.2v12.19h-12.2v-12.19h12.2Zm0,12.19v12.2h-12.2v-12.2h12.2Zm0,12.2v12.2h-12.2v-12.2h12.2Zm0,12.2v12.2h-12.2v-12.2h12.2Zm0,12.2v12.2h-12.2v-12.2h12.2Zm0,12.2v12.19h-12.2v-12.19h12.2Zm0,12.19v12.2h-12.2v-12.2h12.2ZM1122.43.5v12.2h-12.19V.5h12.19Zm0,12.2v12.2h-12.19v-12.2h12.19Zm0,12.2v12.2h-12.19v-12.2h12.19Zm0,12.2v12.19h-12.19v-12.19h12.19Zm0,12.19v12.2h-12.19v-12.2h12.19Zm12.2-48.78v12.2h-12.2V.5h12.2Zm0,12.2v12.2h-12.2v-12.2h12.2Zm0,12.2v12.2h-12.2v-12.2h12.2Zm0,12.2v12.19h-12.2v-12.19h12.2Zm0,12.19v12.2h-12.2v-12.2h12.2Zm12.2-48.78v12.2h-12.2V.5h12.2Zm0,12.2v12.2h-12.2v-12.2h12.2Zm0,12.2v12.2h-12.2v-12.2h12.2Zm0,12.2v12.19h-12.2v-12.19h12.2Zm0,12.19v12.2h-12.2v-12.2h12.2Zm12.2-48.78v12.2h-12.2V.5h12.2Zm0,12.2v12.2h-12.2v-12.2h12.2Zm0,12.2v12.2h-12.2v-12.2h12.2Zm0,12.2v12.19h-12.2v-12.19h12.2Zm0,12.19v12.2h-12.2v-12.2h12.2Zm12.2-48.78v12.2h-12.2V.5h12.2Zm0,12.2v12.2h-12.2v-12.2h12.2Zm0,12.2v12.2h-12.2v-12.2h12.2Zm0,12.2v12.19h-12.2v-12.19h12.2Zm0,12.19v12.2h-12.2v-12.2h12.2Z" stroke="#fe0159" stroke-miterlimit="10"/></svg>