<?xml version="1.0" standalone="no"?>
<!DOCTYPE svg PUBLIC "-//W3C//DTD SVG 20010904//EN"
 "http://www.w3.org/TR/2001/REC-SVG-20010904/DTD/svg10.dtd">
<svg version="1.0" xmlns="http://www.w3.org/2000/svg"
 width="3271.000000pt" height="3271.000000pt" viewBox="0 0 3271.000000 3271.000000"
 preserveAspectRatio="xMidYMid meet">
<metadata>
Created by potrace 1.14, written by Peter Selinger 2001-2017
</metadata>
<g transform="translate(0.000000,3271.000000) scale(0.100000,-0.100000)"
fill="#000000" stroke="none">
<path d="M25184 26826 c-561 -90 -1026 -165 -1032 -167 -6 -2 555 -509 1246
-1126 691 -617 1258 -1116 1260 -1109 2 7 -87 583 -198 1278 -110 696 -200
1270 -200 1277 0 6 -12 11 -27 10 -16 0 -487 -74 -1049 -163z"/>
<path d="M19193 25877 c-629 -100 -1142 -186 -1140 -190 1 -4 527 -520 1169
-1146 l1167 -1138 48 8 c26 5 494 79 1038 165 545 86 992 158 994 160 5 5 26
-18 -1067 1192 -786 869 -1028 1132 -1045 1131 -12 0 -536 -83 -1164 -182z"/>
<path d="M13380 24955 c-492 -79 -897 -144 -900 -144 -3 -1 510 -516 1140
-1146 886 -886 1150 -1145 1169 -1145 28 0 1674 260 1679 265 2 2 -481 524
-1073 1159 -811 870 -1082 1156 -1098 1155 -12 0 -425 -65 -917 -144z"/>
<path d="M7418 24011 c-713 -114 -1299 -209 -1301 -211 -2 -3 87 -581 199
-1285 l203 -1280 1 -1322 0 -1323 100 0 100 0 0 -5400 0 -5401 25 -24 24 -25
9766 0 9766 0 24 25 25 24 0 5401 0 5400 70 0 70 0 0 1326 0 1325 -32 -3 c-30
-3 -61 -50 -858 -1323 l-826 -1320 -1953 -3 c-1858 -2 -1953 -1 -1946 15 3 10
305 604 671 1319 365 716 664 1304 664 1308 0 3 -329 5 -731 4 l-732 -3 -827
-1320 -828 -1320 -1951 -3 c-1073 -1 -1951 0 -1951 2 0 2 299 590 664 1307
366 717 668 1312 671 1322 7 16 -25 17 -621 15 l-629 -3 -830 -1322 -830
-1323 -1947 0 c-1072 0 -1948 3 -1948 8 0 4 302 599 670 1322 l669 1315 -2147
5 -2146 5 2074 328 c1141 181 2085 331 2098 335 20 6 -92 128 -1059 1157
-1081 1149 -1082 1150 -1123 1152 -23 0 -625 -92 -1338 -206z m-615 -524 c18
-8 49 -32 69 -55 140 -155 -9 -397 -212 -343 -97 26 -154 102 -154 206 1 86
40 148 119 189 37 20 134 21 178 3z m332 -3365 c81 -39 128 -116 128 -207 0
-74 -25 -128 -84 -178 -146 -126 -372 -17 -372 178 0 170 177 282 328 207z
m1458 15 c52 -22 98 -68 123 -122 42 -89 28 -185 -38 -260 -51 -58 -106 -79
-197 -73 -85 4 -139 37 -186 113 -26 42 -30 57 -30 121 1 62 5 78 31 120 44
72 118 114 201 114 35 0 78 -6 96 -13z m17087 -2805 l0 -99 -1552 -6 c-854 -4
-2148 -7 -2875 -7 l-1323 0 0 -1041 0 -1042 763 7 c419 3 1406 8 2192 11 787
3 1737 8 2113 11 l682 6 0 -106 0 -106 -462 0 c-255 0 -2276 -9 -4493 -20
-2216 -11 -4049 -20 -4072 -20 l-43 0 0 -1811 0 -1812 1508 7 c829 3 2448 8
3597 11 1150 3 2467 8 2928 11 l837 6 0 -106 0 -106 -532 0 c-293 0 -4018 -11
-8278 -25 -4260 -14 -8117 -25 -8572 -25 l-828 0 0 100 0 100 128 0 c70 0
2062 7 4427 15 2365 8 4364 15 4443 15 l142 0 0 820 c0 649 -3 820 -12 820
-72 2 -8260 30 -8630 30 l-498 0 0 104 0 105 908 -5 c1288 -7 6790 -24 7575
-24 l657 0 -2 883 -3 882 -1210 -4 c-670 -2 -1211 -8 -1213 -12 -5 -12 -209
-11 -214 0 -2 6 -1093 4 -2758 -4 -1515 -8 -2977 -14 -3247 -15 l-493 0 0 99
0 99 543 6 c298 3 1757 11 3242 17 1485 6 2703 14 2707 18 8 7 -9 1815 -18
1989 l-6 102 -3259 0 -3259 0 0 100 0 100 1203 1 c661 1 3380 5 6042 8 2662 4
6274 8 8028 9 l3187 2 0 -98z m-3480 -252 l0 -50 -85 0 -85 0 0 -235 0 -235
-55 0 -55 0 0 235 0 235 -85 0 -85 0 0 50 0 50 225 0 225 0 0 -50z m409 -227
c61 -153 111 -282 111 -286 0 -4 -27 -7 -61 -5 l-61 3 -25 63 -25 62 -113 0
-113 0 -22 -65 -22 -65 -60 0 c-56 0 -60 2 -55 20 3 12 52 140 108 285 l102
265 63 0 62 0 111 -277z m291 155 l0 -123 53 55 c28 30 80 86 115 123 l62 68
75 -3 75 -3 -100 -107 c-55 -58 -100 -109 -100 -112 0 -4 45 -76 100 -161 55
-84 103 -161 106 -170 6 -14 -3 -16 -67 -13 l-73 3 -71 122 c-39 67 -74 126
-78 130 -4 4 -28 -13 -52 -37 l-45 -44 0 -88 0 -88 -55 0 -55 0 0 285 0 285
55 0 55 0 0 -122z m880 72 l0 -50 -155 0 -155 0 0 -60 0 -60 140 0 140 0 0
-50 0 -50 -140 0 -140 0 0 -75 0 -75 160 0 160 0 0 -50 0 -50 -215 0 -215 0 0
285 0 285 210 0 210 0 0 -50z m-13574 -24 c102 -48 150 -145 142 -290 -10
-181 -113 -274 -293 -264 -149 8 -237 95 -252 250 -12 138 39 251 136 301 74
37 191 39 267 3z m-566 -4 c40 -19 80 -88 80 -137 0 -16 -9 -49 -20 -73 -16
-34 -29 -47 -71 -66 l-51 -24 26 -17 c23 -15 111 -138 145 -202 12 -23 11 -23
-57 -23 l-69 0 -63 96 c-75 113 -99 134 -151 134 l-39 0 0 -115 0 -115 -60 0
-60 0 0 280 0 280 178 0 c148 0 183 -3 212 -18z m920 -217 l0 -235 140 0 140
0 0 -45 0 -45 -200 0 -200 0 0 280 0 280 60 0 60 0 0 -235z m482 3 l3 -233
143 -3 142 -3 0 -44 0 -45 -200 0 -200 0 0 280 0 280 55 0 55 0 2 -232z
m11928 -738 l0 -340 65 0 65 0 0 -90 0 -90 -65 0 -65 0 0 -110 0 -110 -100 0
-99 0 -3 108 -3 107 -217 3 -218 2 0 93 0 92 231 338 230 337 90 0 89 0 0
-340z m-12510 225 l0 -95 -195 0 c-194 0 -195 0 -200 -22 -6 -32 -25 -140 -25
-149 0 -4 21 0 48 8 63 20 163 12 224 -17 62 -29 120 -86 155 -152 26 -49 28
-61 28 -173 0 -116 -1 -122 -32 -180 -56 -107 -125 -163 -233 -191 -204 -52
-405 62 -445 252 l-6 32 68 6 c37 4 85 9 106 12 31 5 37 3 37 -12 0 -9 11 -36
25 -59 59 -101 189 -98 249 5 31 52 30 200 -1 250 -54 87 -164 97 -260 24 -35
-26 -37 -27 -110 -16 -41 5 -77 13 -80 16 -5 4 72 442 94 534 l5 22 274 0 274
0 0 -95z m7732 -2152 l3 -38 83 -3 82 -3 0 -39 c0 -40 0 -40 40 -40 l40 0 0
-80 0 -80 40 0 40 0 0 -165 0 -165 -205 0 -205 0 0 80 0 80 -40 0 -40 0 0 45
0 45 -202 -2 -203 -3 -3 -42 c-3 -43 -3 -43 -43 -43 l-39 0 0 -525 0 -525 40
0 40 0 0 -40 0 -40 205 0 205 0 0 40 0 40 40 0 40 0 0 80 0 80 205 0 205 0 0
-160 0 -160 -40 0 -40 0 0 -85 0 -85 -40 0 -40 0 0 -40 0 -40 -85 0 -85 0 0
-40 0 -40 -365 0 -365 0 0 40 0 40 -80 0 -80 0 0 40 c0 40 0 40 -40 40 l-39 0
-3 83 -3 82 -37 3 -38 3 0 690 0 689 40 0 40 0 0 80 0 80 40 0 40 0 0 40 0 40
80 0 80 0 0 40 0 40 364 0 365 0 3 -37z m1628 -3 l0 -40 80 0 80 0 0 -40 0
-40 40 0 40 0 0 -80 0 -80 40 0 40 0 0 -364 0 -365 -37 -3 c-37 -3 -38 -4 -41
-45 -3 -43 -3 -43 -43 -43 l-40 0 3 -37 c3 -36 5 -38 40 -41 35 -3 37 -5 40
-40 3 -35 5 -37 41 -40 l37 -3 0 -365 0 -364 -200 0 -200 0 0 325 0 325 -245
0 -245 0 0 -325 0 -325 -205 0 -205 0 0 1015 0 1015 490 0 490 0 0 -40z m1950
-160 l0 -200 -445 0 -445 0 0 -205 0 -205 365 0 365 0 0 -205 0 -205 -365 0
-365 0 0 -200 0 -200 445 0 445 0 0 -205 0 -205 -650 0 -650 0 0 1015 0 1015
650 0 650 0 0 -200z m1300 160 l0 -40 80 0 80 0 0 -40 0 -40 45 0 45 0 0 -80
0 -80 40 0 40 0 0 -365 0 -365 -40 0 -40 0 0 -45 0 -45 -45 0 -45 0 0 -80 0
-80 -40 0 -40 0 0 -40 0 -40 -325 0 -325 0 0 -325 0 -325 -200 0 -200 0 0
1015 0 1015 485 0 485 0 0 -40z m1870 -160 l0 -200 -202 -2 -203 -3 -3 -812
-2 -813 -200 0 -200 0 -2 813 -3 812 -202 3 -203 2 0 200 0 200 610 0 610 0 0
-200z m-8320 -4575 c4722 -14 8654 -25 8738 -25 l152 0 0 -100 0 -100 -642 0
c-1381 -1 -16835 41 -17195 47 l-383 5 0 99 0 99 373 0 c204 0 4235 -11 8957
-25z"/>
<path d="M14481 17213 l-534 -3 6 -408 c4 -224 10 -694 14 -1045 3 -351 9
-639 12 -641 3 -2 1147 3 2541 10 1394 7 2685 13 2868 13 l332 1 0 1040 0
1040 -2352 -2 c-1294 -2 -2593 -4 -2887 -5z m1249 -155 c33 -17 51 -35 68 -68
36 -72 32 -80 -37 -80 -54 0 -59 2 -65 25 -9 35 -59 58 -113 52 -51 -5 -73
-21 -73 -53 0 -32 27 -47 139 -78 51 -15 107 -36 122 -47 79 -56 87 -183 15
-255 -39 -39 -89 -54 -181 -54 -127 0 -216 65 -219 159 l-1 36 53 3 c41 2 52
0 52 -12 0 -27 54 -77 90 -85 73 -15 140 20 140 75 0 31 -28 48 -125 75 -152
41 -195 80 -195 174 0 105 66 154 205 155 64 0 90 -5 125 -22z m586 -11 c42
-28 89 -99 81 -121 -6 -16 -101 -38 -105 -25 -11 28 -58 70 -91 80 -55 16
-120 -14 -146 -67 -24 -51 -31 -133 -16 -200 25 -108 129 -151 205 -84 19 17
37 44 41 60 l6 29 52 -16 c70 -20 68 -18 50 -61 -40 -97 -111 -142 -224 -142
-146 0 -241 93 -256 253 -12 132 39 248 132 300 46 25 57 27 140 25 79 -3 95
-7 131 -31z m604 -22 l0 -45 -150 0 -150 0 0 -65 0 -65 140 0 140 0 0 -45 0
-45 -140 0 -140 0 0 -80 0 -80 155 0 155 0 0 -45 0 -45 -215 0 -215 0 0 280 0
280 210 0 210 0 0 -45z m331 -122 c56 -93 108 -175 116 -183 11 -12 13 15 13
168 l0 182 50 0 50 0 0 -280 0 -280 -58 0 -57 0 -113 182 -112 182 0 -182 0
-182 -55 0 -55 0 0 280 0 280 59 0 59 0 103 -167z m769 122 l0 -45 -150 0
-150 0 0 -65 0 -65 140 0 140 0 0 -45 0 -45 -140 0 -140 0 0 -80 0 -80 155 0
155 0 0 -45 0 -45 -215 0 -215 0 0 280 0 280 210 0 210 0 0 -45z m-1049 -637
c72 -33 109 -66 142 -127 59 -107 42 -253 -43 -376 -23 -33 -104 -121 -181
-195 -77 -74 -139 -141 -139 -147 0 -10 47 -13 200 -13 l200 0 0 -95 0 -95
-361 0 -362 0 7 46 c16 119 106 242 333 459 132 126 173 187 173 259 0 82 -59
146 -135 146 -39 0 -94 -28 -118 -61 -10 -14 -21 -45 -24 -68 l-6 -42 -46 5
c-25 3 -72 8 -104 12 l-58 6 6 42 c22 132 106 227 234 263 74 21 216 11 282
-19z"/>
<path d="M22430 16987 c0 -3 -16 -49 -35 -102 l-34 -95 74 0 75 0 -35 97 c-33
89 -45 117 -45 100z"/>
<path d="M10025 16975 c-48 -17 -81 -52 -94 -103 -24 -85 -7 -174 43 -229 28
-31 40 -37 89 -41 75 -6 127 25 152 92 24 61 17 185 -12 224 -46 61 -110 82
-178 57z"/>
<path d="M9370 16910 l0 -70 93 0 c104 0 123 8 133 57 5 26 1 37 -19 57 -24
24 -33 26 -117 26 l-90 0 0 -70z"/>
<path d="M22645 15944 c-60 -92 -111 -170 -113 -175 -2 -5 51 -9 117 -9 l121
0 0 175 c0 96 -3 175 -7 175 -5 0 -57 -75 -118 -166z"/>
<path d="M19257 13804 c-4 -4 -7 -133 -7 -286 l0 -278 205 0 205 0 0 40 0 40
40 0 40 0 0 200 0 200 -39 0 c-40 0 -40 0 -43 43 l-3 42 -196 3 c-107 1 -198
-1 -202 -4z"/>
<path d="M22507 13804 c-4 -4 -7 -133 -7 -286 l0 -278 205 0 205 0 0 40 0 40
40 0 40 0 0 200 0 200 -39 0 c-40 0 -40 0 -43 43 l-3 42 -196 3 c-107 1 -198
-1 -202 -4z"/>
</g>
</svg>
